<svg width="24" height="24" viewBox="0 0 24 24" fill="none" xmlns="http://www.w3.org/2000/svg">
<path d="M13 3H4C2.93913 3 1.92172 3.42143 1.17157 4.17157C0.421427 4.92172 0 5.93913 0 7V20C0 21.0609 0.421427 22.0783 1.17157 22.8284C1.92172 23.5786 2.93913 24 4 24H17C18.0609 24 19.0783 23.5786 19.8284 22.8284C20.5786 22.0783 21 21.0609 21 20V11C21 10.7348 20.8946 10.4804 20.7071 10.2929C20.5196 10.1054 20.2652 10 20 10C19.7348 10 19.4804 10.1054 19.2929 10.2929C19.1054 10.4804 19 10.7348 19 11V15.585L15.7075 12.2925C15.6146 12.1995 15.5043 12.1258 15.3829 12.0754C15.2615 12.0251 15.1314 11.9992 15 11.9992C14.8686 11.9992 14.7385 12.0251 14.6171 12.0754C14.4957 12.1258 14.3854 12.1995 14.2925 12.2925L12 14.585L8.7075 11.2925C8.61463 11.1995 8.50434 11.1258 8.38294 11.0754C8.26154 11.0251 8.13142 10.9992 8 10.9992C7.86858 10.9992 7.73846 11.0251 7.61706 11.0754C7.49566 11.1258 7.38537 11.1995 7.2925 11.2925L2 16.585V7C2 6.46957 2.21071 5.96086 2.58579 5.58579C2.96086 5.21071 3.46957 5 4 5H13C13.2652 5 13.5196 4.89464 13.7071 4.70711C13.8946 4.51957 14 4.26522 14 4C14 3.73478 13.8946 3.48043 13.7071 3.29289C13.5196 3.10536 13.2652 3 13 3ZM8 13.415L11.295 16.7075C11.4825 16.8945 11.7365 16.9995 12.0013 16.9995C12.266 16.9995 12.52 16.8945 12.7075 16.7075L15 14.415L19 18.415V20C19 20.5304 18.7893 21.0391 18.4142 21.4142C18.0391 21.7893 17.5304 22 17 22H4C3.46957 22 2.96086 21.7893 2.58579 21.4142C2.21071 21.0391 2 20.5304 2 20V19.415L8 13.415Z" fill="#9DA7AE"/>
<path d="M23 3H21V1C21 0.734784 20.8946 0.48043 20.7071 0.292893C20.5196 0.105357 20.2652 0 20 0C19.7348 0 19.4804 0.105357 19.2929 0.292893C19.1054 0.48043 19 0.734784 19 1V3H17C16.7348 3 16.4804 3.10536 16.2929 3.29289C16.1054 3.48043 16 3.73478 16 4C16 4.26522 16.1054 4.51957 16.2929 4.70711C16.4804 4.89464 16.7348 5 17 5H19V7C19 7.26522 19.1054 7.51957 19.2929 7.70711C19.4804 7.89464 19.7348 8 20 8C20.2652 8 20.5196 7.89464 20.7071 7.70711C20.8946 7.51957 21 7.26522 21 7V5H23C23.2652 5 23.5196 4.89464 23.7071 4.70711C23.8946 4.51957 24 4.26522 24 4C24 3.73478 23.8946 3.48043 23.7071 3.29289C23.5196 3.10536 23.2652 3 23 3Z" fill="#9DA7AE"/>
<path d="M12.5 10C13.3284 10 14 9.32843 14 8.5C14 7.67157 13.3284 7 12.5 7C11.6716 7 11 7.67157 11 8.5C11 9.32843 11.6716 10 12.5 10Z" fill="#9DA7AE"/>
</svg>
