<svg width="16" height="16" viewBox="0 0 16 16" fill="none" xmlns="http://www.w3.org/2000/svg">
<rect x="9.00049" width="16" height="2" rx="1" transform="rotate(90 9.00049 0)" fill="#9DA7AE"/>
<path d="M3.29338 4.29289C2.90286 4.68342 2.90286 5.31658 3.29338 5.70711C3.68391 6.09763 4.31707 6.09763 4.7076 5.70711L3.29338 4.29289ZM8.00049 1L8.70759 0.292893C8.31707 -0.0976311 7.68391 -0.0976311 7.29338 0.292893L8.00049 1ZM11.2934 5.70711C11.6839 6.09763 12.3171 6.09763 12.7076 5.70711C13.0981 5.31658 13.0981 4.68342 12.7076 4.29289L11.2934 5.70711ZM4.7076 5.70711L8.70759 1.70711L7.29338 0.292893L3.29338 4.29289L4.7076 5.70711ZM7.29338 1.70711L11.2934 5.70711L12.7076 4.29289L8.70759 0.292893L7.29338 1.70711Z" fill="#9DA7AE"/>
</svg>
