<svg width="16" height="16" viewBox="0 0 16 16" fill="none" xmlns="http://www.w3.org/2000/svg">
<rect x="2.00049" y="7" width="12" height="2" rx="1" fill="#9DA7AE"/>
<path d="M6.29338 12.7071C6.68391 13.0976 7.31707 13.0976 7.70759 12.7071C8.09812 12.3166 8.09812 11.6834 7.70759 11.2929L6.29338 12.7071ZM3.00049 8L2.29338 7.29289C1.90286 7.68342 1.90286 8.31658 2.29338 8.70711L3.00049 8ZM7.70759 4.70711C8.09812 4.31658 8.09812 3.68342 7.70759 3.29289C7.31707 2.90237 6.68391 2.90237 6.29338 3.29289L7.70759 4.70711ZM7.70759 11.2929L3.70759 7.29289L2.29338 8.70711L6.29338 12.7071L7.70759 11.2929ZM3.70759 8.70711L7.70759 4.70711L6.29338 3.29289L2.29338 7.29289L3.70759 8.70711Z" fill="#9DA7AE"/>
</svg>
