<svg width="24" height="24" viewBox="0 0 24 24" fill="none" xmlns="http://www.w3.org/2000/svg">
<path d="M3 24H21C21.7956 24 22.5587 23.6839 23.1213 23.1213C23.6839 22.5587 24 21.7956 24 21V8C24 7.20435 23.6839 6.44129 23.1213 5.87868C22.5587 5.31607 21.7956 5 21 5H17V3C17 2.20435 16.6839 1.44129 16.1213 0.87868C15.5587 0.31607 14.7956 0 14 0H10C9.20435 0 8.44129 0.31607 7.87868 0.87868C7.31607 1.44129 7 2.20435 7 3V5H3C2.20435 5 1.44129 5.31607 0.87868 5.87868C0.31607 6.44129 0 7.20435 0 8V21C0 21.7956 0.31607 22.5587 0.87868 23.1213C1.44129 23.6839 2.20435 24 3 24ZM21 22H3C2.73478 22 2.48043 21.8946 2.29289 21.7071C2.10536 21.5196 2 21.2652 2 21V14H9V17C9 17.2652 9.10536 17.5196 9.29289 17.7071C9.48043 17.8946 9.73478 18 10 18H14C14.2652 18 14.5196 17.8946 14.7071 17.7071C14.8946 17.5196 15 17.2652 15 17V14H22V21C22 21.2652 21.8946 21.5196 21.7071 21.7071C21.5196 21.8946 21.2652 22 21 22ZM11 14H13V16H11V14ZM9 3C9 2.73478 9.10536 2.48043 9.29289 2.29289C9.48043 2.10536 9.73478 2 10 2H14C14.2652 2 14.5196 2.10536 14.7071 2.29289C14.8946 2.48043 15 2.73478 15 3V5H9V3ZM3 7H21C21.2652 7 21.5196 7.10536 21.7071 7.29289C21.8946 7.48043 22 7.73478 22 8V12H2V8C2 7.73478 2.10536 7.48043 2.29289 7.29289C2.48043 7.10536 2.73478 7 3 7Z" fill="#9DA7AE"/>
</svg>
