<svg width="24" height="24" viewBox="0 0 24 24" fill="none" xmlns="http://www.w3.org/2000/svg">
<path d="M18 0H16C14.6739 0 13.4021 0.526784 12.4645 1.46447C11.5268 2.40215 11 3.67392 11 5V5.025C10.1395 4.36352 9.08536 4.00335 8 4H2C1.73478 4 1.48043 4.10536 1.29289 4.29289C1.10536 4.48043 1 4.73478 1 5V20C1 20.2652 1.10536 20.5196 1.29289 20.7071C1.48043 20.8946 1.73478 21 2 21H8C8.66256 21.0033 9.3054 21.2258 9.82821 21.6328C10.351 22.0398 10.7244 22.6085 10.89 23.25C10.9454 23.4645 11.0705 23.6546 11.2456 23.7903C11.4207 23.9261 11.6359 23.9998 11.8575 24H12.1425C12.3641 23.9998 12.5793 23.9261 12.7544 23.7903C12.9295 23.6546 13.0546 23.4645 13.11 23.25C13.2756 22.6085 13.649 22.0398 14.1718 21.6328C14.6946 21.2258 15.3374 21.0033 16 21H22C22.2652 21 22.5196 20.8946 22.7071 20.7071C22.8946 20.5196 23 20.2652 23 20V5C23 4.73478 22.8946 4.48043 22.7071 4.29289C22.5196 4.10536 22.2652 4 22 4H19V1C19 0.734784 18.8946 0.48043 18.7071 0.292893C18.5196 0.105357 18.2652 0 18 0ZM13 5C13 4.20435 13.3161 3.44129 13.8787 2.87868C14.4413 2.31607 15.2044 2 16 2H17V15H16C14.9146 15.0034 13.8605 15.3635 13 16.025V5ZM8 19H3V6H8C8.79565 6 9.55871 6.31607 10.1213 6.87868C10.6839 7.44129 11 8.20435 11 9V20.0175C10.1382 19.3594 9.08437 19.0019 8 19ZM21 6V19H16C14.9156 19.0016 13.8616 19.359 13 20.0175V20C13 19.2044 13.3161 18.4413 13.8787 17.8787C14.4413 17.3161 15.2044 17 16 17H18C18.2652 17 18.5196 16.8946 18.7071 16.7071C18.8946 16.5196 19 16.2652 19 16V6H21Z" fill="#9DA7AE"/>
</svg>
