<svg width="25" height="24" viewBox="0 0 25 24" fill="none" xmlns="http://www.w3.org/2000/svg">
<path d="M4.37158 24H20.3716C21.4324 24 22.4499 23.5786 23.2 22.8284C23.9502 22.0783 24.3716 21.0609 24.3716 20V4C24.3716 2.93913 23.9502 1.92172 23.2 1.17157C22.4499 0.421427 21.4324 0 20.3716 0H4.37158C3.31072 0 2.2933 0.421427 1.54315 1.17157C0.793009 1.92172 0.371582 2.93913 0.371582 4V20C0.371582 21.0609 0.793009 22.0783 1.54315 22.8284C2.2933 23.5786 3.31072 24 4.37158 24ZM20.3716 22H4.37158C3.84115 22 3.33244 21.7893 2.95737 21.4142C2.5823 21.0391 2.37158 20.5304 2.37158 20V8H22.3716V20C22.3716 20.5304 22.1609 21.0391 21.7858 21.4142C21.4107 21.7893 20.902 22 20.3716 22ZM4.37158 2H20.3716C20.902 2 21.4107 2.21071 21.7858 2.58579C22.1609 2.96086 22.3716 3.46957 22.3716 4V6H2.37158V4C2.37158 3.46957 2.5823 2.96086 2.95737 2.58579C3.33244 2.21071 3.84115 2 4.37158 2Z" fill="#9DA7AE"/>
<path d="M6.37158 16C6.92387 16 7.37158 15.5523 7.37158 15C7.37158 14.4477 6.92387 14 6.37158 14C5.8193 14 5.37158 14.4477 5.37158 15C5.37158 15.5523 5.8193 16 6.37158 16Z" fill="#9DA7AE"/>
<path d="M6.37158 20C6.92387 20 7.37158 19.5523 7.37158 19C7.37158 18.4477 6.92387 18 6.37158 18C5.8193 18 5.37158 18.4477 5.37158 19C5.37158 19.5523 5.8193 20 6.37158 20Z" fill="#9DA7AE"/>
<path d="M10.3716 16C10.9239 16 11.3716 15.5523 11.3716 15C11.3716 14.4477 10.9239 14 10.3716 14C9.8193 14 9.37158 14.4477 9.37158 15C9.37158 15.5523 9.8193 16 10.3716 16Z" fill="#9DA7AE"/>
<path d="M10.3716 20C10.9239 20 11.3716 19.5523 11.3716 19C11.3716 18.4477 10.9239 18 10.3716 18C9.8193 18 9.37158 18.4477 9.37158 19C9.37158 19.5523 9.8193 20 10.3716 20Z" fill="#9DA7AE"/>
<path d="M14.3716 16C14.9239 16 15.3716 15.5523 15.3716 15C15.3716 14.4477 14.9239 14 14.3716 14C13.8193 14 13.3716 14.4477 13.3716 15C13.3716 15.5523 13.8193 16 14.3716 16Z" fill="#9DA7AE"/>
<path d="M14.3716 20C14.9239 20 15.3716 19.5523 15.3716 19C15.3716 18.4477 14.9239 18 14.3716 18C13.8193 18 13.3716 18.4477 13.3716 19C13.3716 19.5523 13.8193 20 14.3716 20Z" fill="#9DA7AE"/>
<path d="M18.3716 16C18.9239 16 19.3716 15.5523 19.3716 15C19.3716 14.4477 18.9239 14 18.3716 14C17.8193 14 17.3716 14.4477 17.3716 15C17.3716 15.5523 17.8193 16 18.3716 16Z" fill="#9DA7AE"/>
<path d="M10.3716 12C10.9239 12 11.3716 11.5523 11.3716 11C11.3716 10.4477 10.9239 10 10.3716 10C9.8193 10 9.37158 10.4477 9.37158 11C9.37158 11.5523 9.8193 12 10.3716 12Z" fill="#9DA7AE"/>
<path d="M14.3716 12C14.9239 12 15.3716 11.5523 15.3716 11C15.3716 10.4477 14.9239 10 14.3716 10C13.8193 10 13.3716 10.4477 13.3716 11C13.3716 11.5523 13.8193 12 14.3716 12Z" fill="#9DA7AE"/>
<path d="M18.3716 12C18.9239 12 19.3716 11.5523 19.3716 11C19.3716 10.4477 18.9239 10 18.3716 10C17.8193 10 17.3716 10.4477 17.3716 11C17.3716 11.5523 17.8193 12 18.3716 12Z" fill="#9DA7AE"/>
</svg>
