<svg width="24" height="24" viewBox="0 0 24 24" fill="none" xmlns="http://www.w3.org/2000/svg">
<path d="M19.1605 23H18.9012C15.7885 22.6606 12.7982 21.5997 10.169 19.9019C7.73821 18.3477 5.67352 16.2862 4.11699 13.8591C2.41631 11.227 1.35389 8.23507 1.01414 5.12112C0.971944 4.70239 1.02447 4.27955 1.16784 3.8838C1.29889 3.52692 1.50157 3.20052 1.76344 2.92463C2.03234 2.63054 2.35945 2.39538 2.72407 2.23403C3.09147 2.06322 3.49082 1.97171 3.89605 1.96546H6.77795C7.48257 1.95648 8.16607 2.20557 8.69922 2.66565C9.22759 3.11865 9.56971 3.7506 9.65985 4.44011C9.77145 5.2916 9.97765 6.12803 10.2747 6.93395C10.4734 7.44728 10.5168 8.00759 10.3995 8.54535C10.2924 9.07885 10.0359 9.57107 9.65985 9.96492L8.9682 10.6555C10.0923 12.4285 11.5946 13.9318 13.3679 15.0581L14.0596 14.3675C14.4531 13.98 14.95 13.7136 15.4909 13.6002C16.0295 13.483 16.5907 13.5264 17.1048 13.7249C17.9093 14.0192 18.7436 14.2251 19.5928 14.3387C20.292 14.4272 20.9345 14.7684 21.3988 15.2979C21.8527 15.833 22.0952 16.5152 22.0809 17.2162V20.0937C22.0793 20.4937 21.9942 20.889 21.8311 21.2543C21.675 21.6215 21.4387 21.9492 21.1394 22.2135C20.8468 22.4847 20.4997 22.6907 20.1212 22.8178C19.8145 22.9356 19.4891 22.9973 19.1605 23ZM6.77795 3.8838H3.89605C3.76302 3.88267 3.63152 3.91221 3.51179 3.97012C3.38605 4.01968 3.27405 4.09862 3.18518 4.20032C3.09808 4.29907 3.02972 4.41283 2.98344 4.53603C2.95943 4.66602 2.95943 4.7993 2.98344 4.92929C3.28888 7.74009 4.24957 10.4403 5.7885 12.8136C7.17959 15.0014 9.02777 16.8631 11.2065 18.2713C13.5839 19.7998 16.2832 20.7584 19.0933 21.0721C19.2198 21.0739 19.346 21.0577 19.4679 21.0241C19.5935 20.9779 19.708 20.9061 19.8042 20.8131C19.9078 20.7299 19.9874 20.6206 20.0347 20.4966C20.0911 20.3731 20.1205 20.239 20.1212 20.1033V17.2258C20.1282 16.9873 20.046 16.7548 19.8906 16.5736C19.7385 16.3961 19.5267 16.2801 19.295 16.2475C18.3106 16.1154 17.344 15.8742 16.4131 15.5281C16.2421 15.4611 16.0554 15.4444 15.8752 15.4801C15.6944 15.5212 15.5284 15.6107 15.3948 15.7391L14.1748 16.9572C14.0259 17.1051 13.8326 17.2002 13.6244 17.2279C13.4162 17.2557 13.2046 17.2145 13.0221 17.1107C10.4692 15.6606 8.35519 13.5498 6.90283 11.0008C6.79173 10.8186 6.74464 10.6046 6.769 10.3927C6.79335 10.1808 6.88777 9.98298 7.03732 9.83063L8.25733 8.61249C8.37586 8.48647 8.45807 8.33081 8.49527 8.16196C8.53248 7.99312 8.52328 7.81738 8.46867 7.65332C8.12168 6.72402 7.88002 5.75884 7.74819 4.77582C7.70792 4.54981 7.59292 4.3438 7.42158 4.19073C7.25444 4.00974 7.02399 3.89984 6.77795 3.8838ZM18.1807 10.598C17.9546 10.6021 17.7343 10.5264 17.5586 10.3843C17.3829 10.2422 17.263 10.0427 17.2201 9.82104C17.0687 9.07349 16.7013 8.38658 16.1634 7.84516C15.6376 7.30083 14.9625 6.92375 14.2229 6.7613C13.9681 6.71296 13.743 6.56556 13.5971 6.3515C13.4511 6.13744 13.3963 5.87428 13.4448 5.61989C13.4932 5.3655 13.6408 5.14073 13.8552 4.99503C14.0696 4.84933 14.3331 4.79463 14.5879 4.84296C15.7109 5.06401 16.7435 5.61124 17.5563 6.416C18.3698 7.22712 18.9218 8.26262 19.1413 9.38942C19.1893 9.63867 19.1363 9.89673 18.9941 10.1071C18.8518 10.3174 18.6319 10.4629 18.3824 10.5116L18.1807 10.598ZM22.0232 10.598C21.7857 10.5994 21.5561 10.513 21.3787 10.3553C21.2013 10.1977 21.0887 9.97999 21.0626 9.74431C20.8797 8.00927 20.1101 6.38826 18.8807 5.14853C17.6513 3.90881 16.0355 3.1244 14.2997 2.92463C14.1742 2.91147 14.0525 2.87373 13.9415 2.81357C13.8306 2.75341 13.7326 2.672 13.6532 2.57402C13.5738 2.47603 13.5145 2.36338 13.4788 2.2425C13.443 2.12162 13.4314 1.99489 13.4448 1.86954C13.4567 1.74244 13.4939 1.619 13.5543 1.50646C13.6146 1.39391 13.6969 1.29453 13.7962 1.21413C13.8955 1.13373 14.0099 1.07393 14.1326 1.03824C14.2554 1.00256 14.384 0.991693 14.5111 1.00629C16.6762 1.24714 18.695 2.21561 20.2363 3.75281C21.7776 5.29001 22.7498 7.30464 22.9935 9.46615C23.0082 9.59151 22.998 9.71854 22.9634 9.83996C22.9289 9.96138 22.8707 10.0748 22.7921 10.1737C22.7136 10.2726 22.6163 10.3551 22.5058 10.4164C22.3953 10.4776 22.2737 10.5165 22.1481 10.5308L22.0232 10.598Z" fill="#9DA7AE"/>
</svg>
