<svg width="24" height="24" viewBox="0 0 24 24" fill="none" xmlns="http://www.w3.org/2000/svg">
<path d="M5.00017 18.0008H6.00022V23.001C6.00043 23.2063 6.06385 23.4066 6.18185 23.5747C6.29985 23.7427 6.46672 23.8703 6.65979 23.9403C6.85285 24.0102 7.06276 24.0189 7.26099 23.9654C7.45922 23.9119 7.63617 23.7986 7.7678 23.641L12.468 18.0008H19.0008C20.0617 18.0008 21.0792 17.5793 21.8293 16.8292C22.5795 16.079 23.001 15.0615 23.001 14.0006V4.00017C23.001 2.93926 22.5795 1.9218 21.8293 1.17162C21.0792 0.421446 20.0617 0 19.0008 0H5.00017C3.93926 0 2.9218 0.421446 2.17162 1.17162C1.42145 1.9218 1 2.93926 1 4.00017V14.0006C1 15.0615 1.42145 16.079 2.17162 16.8292C2.9218 17.5793 3.93926 18.0008 5.00017 18.0008ZM3.00009 4.00017C3.00009 3.46972 3.21081 2.96099 3.5859 2.5859C3.96099 2.21081 4.46972 2.00009 5.00017 2.00009H19.0008C19.5312 2.00009 20.04 2.21081 20.4151 2.5859C20.7902 2.96099 21.0009 3.46972 21.0009 4.00017V14.0006C21.0009 14.5311 20.7902 15.0398 20.4151 15.4149C20.04 15.79 19.5312 16.0007 19.0008 16.0007H12.0005C11.854 16.0008 11.7093 16.0331 11.5767 16.0954C11.444 16.1576 11.3267 16.2482 11.2329 16.3607L8.00031 20.2509V17.0007C8.00031 16.7355 7.89494 16.4811 7.7074 16.2936C7.51986 16.1061 7.26549 16.0007 7.00026 16.0007H5.00017C4.46972 16.0007 3.96099 15.79 3.5859 15.4149C3.21081 15.0398 3.00009 14.5311 3.00009 14.0006V4.00017Z" fill="#9DA7AE"/>
<path d="M12.0005 10.0004C12.5528 10.0004 13.0006 9.55269 13.0006 9.00038C13.0006 8.44807 12.5528 8.00034 12.0005 8.00034C11.4482 8.00034 11.0005 8.44807 11.0005 9.00038C11.0005 9.55269 11.4482 10.0004 12.0005 10.0004Z" fill="#9DA7AE"/>
<path d="M8.00053 10.0004C8.55284 10.0004 9.00058 9.55269 9.00058 9.00038C9.00058 8.44807 8.55284 8.00034 8.00053 8.00034C7.44822 8.00034 7.00049 8.44807 7.00049 9.00038C7.00049 9.55269 7.44822 10.0004 8.00053 10.0004Z" fill="#9DA7AE"/>
<path d="M16.0005 10.0004C16.5528 10.0004 17.0006 9.55269 17.0006 9.00038C17.0006 8.44807 16.5528 8.00034 16.0005 8.00034C15.4482 8.00034 15.0005 8.44807 15.0005 9.00038C15.0005 9.55269 15.4482 10.0004 16.0005 10.0004Z" fill="#9DA7AE"/>
</svg>
