<svg width="24" height="24" viewBox="0 0 24 24" fill="none" xmlns="http://www.w3.org/2000/svg">
<path d="M5.00017 18.0008H6.00022V22.001C6.00043 22.2063 6.06385 22.4066 6.18185 22.5747C6.29985 22.7427 6.46672 22.8703 6.65979 22.9403C6.85285 23.0102 7.06276 23.0189 7.26099 22.9654C7.45922 22.9119 7.63617 22.7986 7.7678 22.641L12.468 18.0008H19.0008C20.0617 18.0008 21.0792 17.5793 21.8293 16.8292C22.5795 16.079 23.001 15.0615 23.001 14.0006V6.00017C23.001 4.93926 22.5795 3.9218 21.8293 3.17162C21.0792 2.42145 20.0617 2 19.0008 2H5.00017C3.93926 2 2.9218 2.42145 2.17162 3.17162C1.42145 3.9218 1 4.93926 1 6.00017V14.0006C1 15.0615 1.42145 16.079 2.17162 16.8292C2.9218 17.5793 3.93926 18.0008 5.00017 18.0008ZM3.00009 6.00017C3.00009 5.46972 3.21081 4.96099 3.5859 4.5859C3.96099 4.21081 4.46972 4.00009 5.00017 4.00009H19.0008C19.5312 4.00009 20.04 4.21081 20.4151 4.5859C20.7902 4.96099 21.0009 5.46972 21.0009 6.00017V14.0006C21.0009 14.5311 20.7902 15.0398 20.4151 15.4149C20.04 15.79 19.5312 16.0007 19.0008 16.0007H12.0005C11.854 16.0008 11.7093 16.0331 11.5767 16.0954C11.444 16.1576 11.3267 16.2482 11.2329 16.3607L8.00031 19.2509V17.0007C8.00031 16.7355 7.89494 16.4812 7.7074 16.2936C7.51986 16.1061 7.26549 16.0007 7.00026 16.0007H5.00017C4.46972 16.0007 3.96099 15.79 3.5859 15.4149C3.21081 15.0398 3.00009 14.5311 3.00009 14.0006V6.00017Z" fill="#9DA7AE"/>
</svg>
