<svg width="24" height="24" viewBox="0 0 24 24" fill="none" xmlns="http://www.w3.org/2000/svg">
<path fill-rule="evenodd" clip-rule="evenodd" d="M13.973 12.9946L12.0001 13.0213V15.9726C10.6185 15.8201 10.424 15.0426 9.70631 13.9216L9.11626 13H8.40012C7.24701 13 6.50247 12.9984 5.93579 12.9521C5.39247 12.9078 5.19103 12.8324 5.09214 12.782C4.71582 12.5903 4.40986 12.2843 4.21811 11.908C4.16772 11.8091 4.09237 11.6077 4.04798 11.0643C4.00168 10.4977 4.00012 9.75311 4.00012 8.6V8.4C4.00012 7.24689 4.00168 6.50235 4.04798 5.93567C4.09237 5.39235 4.16772 5.19091 4.21811 5.09202C4.40986 4.71569 4.71582 4.40973 5.09214 4.21799L4.18416 2.43597C3.43151 2.81947 2.81959 3.43139 2.4361 4.18404C2.00012 5.03969 2.00012 6.15979 2.00012 8.4V8.6C2.00012 10.8402 2.00012 11.9603 2.4361 12.816C2.81959 13.5686 3.43151 14.1805 4.18416 14.564C5.03981 15 6.15991 15 8.40012 15H8.02194C9.17701 16.8042 10.1989 18 12.5001 18H13.0001C13.5524 18 14.0001 17.5523 14.0001 17V14.9944C15.3502 14.9761 16.1607 14.8979 16.8161 14.564L15.9081 12.782C15.7212 12.8772 15.3608 12.9758 13.973 12.9946ZM4.18416 2.43597L5.09214 4.21799C5.19103 4.1676 5.39247 4.09225 5.93579 4.04785C6.50247 4.00156 7.24701 4 8.40012 4H12.6001C13.7532 4 14.4978 4.00156 15.0645 4.04785C15.6078 4.09225 15.8092 4.1676 15.9081 4.21799C16.2844 4.40973 16.5904 4.71569 16.7821 5.09202C16.8325 5.19091 16.9079 5.39235 16.9523 5.93567C16.9986 6.50235 17.0001 7.24689 17.0001 8.4V8.6C17.0001 9.75311 16.9986 10.4977 16.9523 11.0643C16.9079 11.6077 16.8325 11.8091 16.7821 11.908C16.5904 12.2843 16.2844 12.5903 15.9081 12.782L16.8161 14.564C17.5687 14.1805 18.1807 13.5686 18.5641 12.816C19.0001 11.9603 19.0001 10.8402 19.0001 8.6V8.4C19.0001 6.15979 19.0491 5.13516 18.5641 4.18404C18.1807 3.43139 17.5687 2.81947 16.8161 2.43597C15.9604 2 14.8403 2 12.6001 2H8.40012C6.15991 2 5.03981 2 4.18416 2.43597Z" fill="#9DA7AE"/>
<rect width="2" height="3" rx="1" transform="matrix(7.28523e-08 -1 -1 -2.62268e-08 15 9)" fill="#9DA7AE"/>
<rect x="7" y="8" width="12" height="10" fill="white"/>
<path fill-rule="evenodd" clip-rule="evenodd" d="M16.9729 16.9946L15 17.0213V19.9726C13.6183 19.8201 12.4239 19.0426 11.7062 17.9216L11.1161 17H10.4C9.24689 17 9.50235 16.9984 8.93567 16.9521C8.39235 16.9078 8.19091 16.8324 8.09202 16.782C7.71569 16.5903 7.40973 16.2843 7.21799 15.908C7.1676 15.8091 7.09225 15.6077 7.04786 15.0643C7.00155 14.4977 7 13.7531 7 12.6V12.4C7 11.2469 7.00155 10.5023 7.04786 9.93567C7.09225 9.39235 7.1676 9.19091 7.21799 9.09202C7.40973 8.71569 7.71569 8.40973 8.09202 8.21799L7.18404 6.43597C6.43139 6.81947 5.81947 7.43139 5.43597 8.18404C5 9.03969 5 10.1598 5 12.4V12.6C5 14.8402 5 15.9603 5.43597 16.816C5.81947 17.5686 6.43139 18.1805 7.18404 18.564C8.03968 19 8.15979 19 10.4 19H10.0218C11.1769 20.8042 13.1988 22 15.5 22H16C16.5523 22 17 21.5523 17 21V18.9944C18.3501 18.9761 19.1606 18.8979 19.816 18.564L18.908 16.782C18.7211 16.8772 18.3606 16.9758 16.9729 16.9946ZM7.18404 6.43597L8.09202 8.21799C8.1909 8.1676 8.39235 8.09225 8.93567 8.04785C9.50235 8.00156 9.24689 8 10.4 8H15.6C16.7531 8 17.4977 8.00156 18.0643 8.04785C18.6077 8.09225 18.8091 8.1676 18.908 8.21799C19.2843 8.40973 19.5903 8.71569 19.782 9.09202C19.8324 9.19091 19.9078 9.39235 19.9521 9.93567C19.9984 10.5023 20 11.2469 20 12.4V12.6C20 13.7531 19.9984 14.4977 19.9521 15.0643C19.9078 15.6077 19.8324 15.8091 19.782 15.908C19.5903 16.2843 19.2843 16.5903 18.908 16.782L19.816 18.564C20.5686 18.1805 21.1805 17.5686 21.564 16.816C22 15.9603 22 14.8402 22 12.6V12.4C22 10.1598 22 9.03969 21.564 8.18404C21.1805 7.43139 20.5686 6.81947 19.816 6.43597C18.9603 6 17.8402 6 15.6 6H10.4C8.15979 6 8.03968 6 7.18404 6.43597Z" fill="#9DA7AE"/>
<path d="M17 12C17.5523 12 18 11.5523 18 11C18 10.4477 17.5523 10 17 10L10 10C9.44772 10 9 10.4477 9 11C9 11.5523 9.44772 12 10 12L17 12Z" fill="#9DA7AE"/>
<path d="M14 15C14.5523 15 15 14.5523 15 14C15 13.4477 14.5523 13 14 13L10 13C9.44772 13 9 13.4477 9 14C9 14.5523 9.44772 15 10 15L14 15Z" fill="#9DA7AE"/>
</svg>
