<svg width="24" height="24" viewBox="0 0 24 24" fill="none" xmlns="http://www.w3.org/2000/svg">
<path d="M21 0H3C2.20435 0 1.44129 0.31607 0.87868 0.87868C0.31607 1.44129 0 2.20435 0 3V16C0 16.7956 0.31607 17.5587 0.87868 18.1213C1.44129 18.6839 2.20435 19 3 19H8V22H6C5.73478 22 5.48043 22.1054 5.29289 22.2929C5.10536 22.4804 5 22.7348 5 23C5 23.2652 5.10536 23.5196 5.29289 23.7071C5.48043 23.8946 5.73478 24 6 24H18C18.2652 24 18.5196 23.8946 18.7071 23.7071C18.8946 23.5196 19 23.2652 19 23C19 22.7348 18.8946 22.4804 18.7071 22.2929C18.5196 22.1054 18.2652 22 18 22H16V19H21C21.7956 19 22.5587 18.6839 23.1213 18.1213C23.6839 17.5587 24 16.7956 24 16V3C24 2.20435 23.6839 1.44129 23.1213 0.87868C22.5587 0.31607 21.7956 0 21 0ZM2 3C2 2.73478 2.10536 2.48043 2.29289 2.29289C2.48043 2.10536 2.73478 2 3 2H21C21.2652 2 21.5196 2.10536 21.7071 2.29289C21.8946 2.48043 22 2.73478 22 3V12H2V3ZM14 22H10V19H14V22ZM22 16C22 16.2652 21.8946 16.5196 21.7071 16.7071C21.5196 16.8946 21.2652 17 21 17H3C2.73478 17 2.48043 16.8946 2.29289 16.7071C2.10536 16.5196 2 16.2652 2 16V14H22V16Z" fill="#9DA7AE"/>
</svg>
