<svg width="25" height="24" viewBox="0 0 25 24" fill="none" xmlns="http://www.w3.org/2000/svg">
<path d="M5.37158 24H19.3716C20.6977 24 21.9694 23.4732 22.9071 22.5355C23.8448 21.5979 24.3716 20.3261 24.3716 19V18C24.3716 17.7348 24.2662 17.4804 24.0787 17.2929C23.8912 17.1054 23.6368 17 23.3716 17H19.3716V6C19.3716 5.20435 19.0555 4.44129 18.4929 3.87868C17.9303 3.31607 17.1672 3 16.3716 3H10.3716C10.3716 2.20435 10.0555 1.44129 9.4929 0.87868C8.93029 0.31607 8.16723 0 7.37158 0C6.57593 0 5.81287 0.31607 5.25026 0.87868C4.68765 1.44129 4.37158 2.20435 4.37158 3H3.37158C2.57593 3 1.81287 3.31607 1.25026 3.87868C0.687653 4.44129 0.371582 5.20435 0.371582 6V19C0.371582 20.3261 0.898366 21.5979 1.83605 22.5355C2.77373 23.4732 4.0455 24 5.37158 24ZM19.3716 22H9.34658C10.0081 21.1395 10.3682 20.0854 10.3716 19H22.3716C22.3716 19.7956 22.0555 20.5587 21.4929 21.1213C20.9303 21.6839 20.1672 22 19.3716 22ZM2.37158 6C2.37158 5.73478 2.47694 5.48043 2.66448 5.29289C2.85201 5.10536 3.10637 5 3.37158 5H4.37158V8C4.37158 8.79565 4.68765 9.55871 5.25026 10.1213C5.81287 10.6839 6.57593 11 7.37158 11C8.16723 11 8.93029 10.6839 9.4929 10.1213C10.0555 9.55871 10.3716 8.79565 10.3716 8C10.3716 7.73478 10.2662 7.48043 10.0787 7.29289C9.89115 7.10536 9.6368 7 9.37158 7C9.10637 7 8.85201 7.10536 8.66448 7.29289C8.47694 7.48043 8.37158 7.73478 8.37158 8C8.37158 8.26522 8.26622 8.51957 8.07869 8.70711C7.89115 8.89464 7.6368 9 7.37158 9C7.10637 9 6.85201 8.89464 6.66448 8.70711C6.47694 8.51957 6.37158 8.26522 6.37158 8V3C6.37158 2.73478 6.47694 2.48043 6.66448 2.29289C6.85201 2.10536 7.10637 2 7.37158 2C7.6368 2 7.89115 2.10536 8.07869 2.29289C8.26622 2.48043 8.37158 2.73478 8.37158 3V4C8.37158 4.26522 8.47694 4.51957 8.66448 4.70711C8.85201 4.89464 9.10637 5 9.37158 5H16.3716C16.6368 5 16.8912 5.10536 17.0787 5.29289C17.2662 5.48043 17.3716 5.73478 17.3716 6V17H9.37158C9.10637 17 8.85201 17.1054 8.66448 17.2929C8.47694 17.4804 8.37158 17.7348 8.37158 18V19C8.37158 19.7956 8.05551 20.5587 7.4929 21.1213C6.93029 21.6839 6.16723 22 5.37158 22C4.57593 22 3.81287 21.6839 3.25026 21.1213C2.68765 20.5587 2.37158 19.7956 2.37158 19V6Z" fill="#9DA7AE"/>
</svg>
