<svg width="25" height="24" viewBox="0 0 25 24" fill="none" xmlns="http://www.w3.org/2000/svg">
<path d="M1.46249 15.2727C1.17316 15.2727 0.895687 15.3877 0.691102 15.5922C0.486517 15.7968 0.371582 16.0743 0.371582 16.3636V19.6364C0.371582 20.7937 0.831321 21.9036 1.64966 22.7219C2.468 23.5403 3.57791 24 4.73522 24H20.0079C21.1653 24 22.2752 23.5403 23.0935 22.7219C23.9118 21.9036 24.3716 20.7937 24.3716 19.6364V16.3636C24.3716 16.0743 24.2566 15.7968 24.0521 15.5922C23.8475 15.3877 23.57 15.2727 23.2807 15.2727C22.9913 15.2727 22.7139 15.3877 22.5093 15.5922C22.3047 15.7968 22.1898 16.0743 22.1898 16.3636V19.6364C22.1898 20.215 21.9599 20.77 21.5507 21.1791C21.1416 21.5883 20.5866 21.8182 20.0079 21.8182H4.73522C4.15656 21.8182 3.60161 21.5883 3.19244 21.1791C2.78327 20.77 2.5534 20.215 2.5534 19.6364V16.3636C2.5534 16.0743 2.43847 15.7968 2.23388 15.5922C2.0293 15.3877 1.75182 15.2727 1.46249 15.2727Z" fill="#9DA7AE"/>
<path d="M12.3714 0C12.0821 0 11.8046 0.114935 11.6 0.31952C11.3954 0.524105 11.2805 0.801582 11.2805 1.09091V14.7273L8.76323 12.3164C8.55419 12.116 8.27412 12.0069 7.98463 12.013C7.69515 12.0192 7.41995 12.1401 7.2196 12.3491C7.01924 12.5581 6.91012 12.8382 6.91626 13.1277C6.9224 13.4172 7.04328 13.6924 7.25232 13.8927L11.616 18.0682C11.8191 18.2632 12.0898 18.3721 12.3714 18.3721C12.653 18.3721 12.9237 18.2632 13.1269 18.0682L17.4905 13.8927C17.594 13.7935 17.677 13.6749 17.7346 13.5436C17.7923 13.4124 17.8235 13.271 17.8266 13.1277C17.8296 12.9843 17.8044 12.8418 17.7523 12.7082C17.7003 12.5746 17.6224 12.4526 17.5232 12.3491C17.424 12.2456 17.3054 12.1626 17.1741 12.105C17.0429 12.0473 16.9015 12.0161 16.7582 12.013C16.6149 12.01 16.4723 12.0352 16.3387 12.0873C16.2051 12.1393 16.0831 12.2172 15.9796 12.3164L13.4623 14.7273V1.09091C13.4623 0.801582 13.3474 0.524105 13.1428 0.31952C12.9382 0.114935 12.6607 0 12.3714 0Z" fill="#9DA7AE"/>
</svg>
