<svg width="24" height="24" viewBox="0 0 24 24" fill="none" xmlns="http://www.w3.org/2000/svg">
<path fill-rule="evenodd" clip-rule="evenodd" d="M16.123 2.86238L4.83194 14.1534L3.52198 17.8611C2.96193 19.4463 4.48883 20.9732 6.074 20.4132L9.78169 19.1032L18.4338 10.4511C18.4717 10.4227 18.5081 10.3913 18.5426 10.3568L19.2497 9.64969L19.2424 9.64246L21.0728 7.81213C21.8538 7.03108 21.8538 5.76475 21.0728 4.9837L18.9514 2.86238C18.1704 2.08134 16.9041 2.08133 16.123 2.86238ZM17.8282 8.22825L19.6585 6.39792L17.5372 4.2766L15.7069 6.10693L17.8282 8.22825ZM14.2927 7.52114L6.56669 15.2471L5.40775 18.5274L8.68801 17.3684L16.414 9.64246L14.2927 7.52114Z" fill="#9DA7AE"/>
</svg>
