<svg width="24" height="24" viewBox="0 0 24 24" fill="none" xmlns="http://www.w3.org/2000/svg">
<path d="M1.00003 21.9893C1.00003 22.2545 1.10538 22.5089 1.29289 22.6964C1.4804 22.8839 1.73473 22.9892 1.99991 22.9892H3.68721C4.86913 22.9925 6.03995 22.7613 7.13194 22.309C8.22392 21.8568 9.21537 21.1925 10.0489 20.3545L21.67 8.74096C22.5216 7.88939 23 6.73441 23 5.5301C23 4.32579 22.5216 3.17081 21.67 2.31924C20.8184 1.46767 19.6635 0.989258 18.4592 0.989258C17.2549 0.989258 16.0999 1.46767 15.2483 2.31924L3.63471 13.9403C2.79678 14.7739 2.13247 15.7653 1.68024 16.8573C1.228 17.9493 0.996802 19.1201 1.00003 20.3021V21.9893ZM20.2477 3.74157C20.723 4.21691 20.9901 4.86161 20.9901 5.53385C20.9901 6.20608 20.723 6.85079 20.2477 7.32613L18.9978 8.57598L15.4133 4.99141L16.6631 3.74157C17.1459 3.28041 17.7878 3.02308 18.4554 3.02308C19.123 3.02308 19.7649 3.28041 20.2477 3.74157ZM2.99979 20.3021C2.99717 19.3829 3.177 18.4723 3.52886 17.6232C3.88071 16.774 4.39759 16.0031 5.04954 15.3552L13.9985 6.40624L17.583 9.99081L8.6341 18.9397C7.98615 19.5917 7.21526 20.1086 6.36609 20.4604C5.51693 20.8123 4.60638 20.9921 3.68721 20.9895H2.99979V20.3021Z" fill="#9DA7AE"/>
<path d="M3.99927 9.99103V6.9914C3.99927 6.19584 4.3153 5.43287 4.87784 4.87033C5.44038 4.30779 6.20335 3.99176 6.9989 3.99176H9.99854C10.2637 3.99176 10.518 3.88642 10.7056 3.6989C10.8931 3.51139 10.9984 3.25707 10.9984 2.99188C10.9984 2.7267 10.8931 2.47238 10.7056 2.28486C10.518 2.09735 10.2637 1.992 9.99854 1.992H6.9989C5.67298 1.992 4.40137 2.51872 3.4638 3.45629C2.52623 4.39386 1.99951 5.66547 1.99951 6.9914V9.99103C1.99951 10.2562 2.10486 10.5105 2.29237 10.6981C2.47988 10.8856 2.73421 10.9909 2.99939 10.9909C3.26457 10.9909 3.5189 10.8856 3.70641 10.6981C3.89392 10.5105 3.99927 10.2562 3.99927 9.99103Z" fill="#9DA7AE"/>
<path d="M16.999 21.9895C18.3249 21.9895 19.5966 21.4628 20.5341 20.5252C21.4717 19.5877 21.9984 18.3161 21.9984 16.9901V13.9905C21.9984 13.7253 21.8931 13.471 21.7056 13.2835C21.518 13.096 21.2637 12.9906 20.9985 12.9906C20.7334 12.9906 20.479 13.096 20.2915 13.2835C20.104 13.471 19.9987 13.7253 19.9987 13.9905V16.9901C19.9987 17.7857 19.6826 18.5487 19.1201 19.1112C18.5575 19.6737 17.7946 19.9898 16.999 19.9898H13.9994C13.7342 19.9898 13.4799 20.0951 13.2924 20.2826C13.1049 20.4701 12.9995 20.7245 12.9995 20.9896C12.9995 21.2548 13.1049 21.5092 13.2924 21.6967C13.4799 21.8842 13.7342 21.9895 13.9994 21.9895H16.999Z" fill="#9DA7AE"/>
</svg>
