<svg width="24" height="24" viewBox="0 0 24 24" fill="none" xmlns="http://www.w3.org/2000/svg">
<path fill-rule="evenodd" clip-rule="evenodd" d="M7.00001 2.99994C6.73479 2.99994 6.48044 3.10529 6.2929 3.29282C6.10536 3.48035 6.00001 3.7347 6.00001 3.99991V12.9991C6.00001 12.9993 6.00001 12.9995 6.00001 12.9996V20.5894L11.2925 15.2946C11.3854 15.2016 11.4957 15.1278 11.6171 15.0775C11.7385 15.0272 11.8686 15.0013 12 15.0013C12.1314 15.0013 12.2615 15.0272 12.3829 15.0775C12.5043 15.1278 12.6146 15.2016 12.7075 15.2946L18 20.5894L18 12.9996C18 12.9992 18 12.9987 18 12.9983V3.99991C18 3.7347 17.8946 3.48035 17.7071 3.29282C17.5196 3.10529 17.2652 2.99994 17 2.99994H7.00001ZM17 1C17.7956 1 18.5587 1.31606 19.1213 1.87865C19.6839 2.44124 20 3.20428 20 3.99991V12.9996V21.2819C20.0011 21.6209 19.9016 21.9527 19.7139 22.2351C19.5263 22.5176 19.2591 22.7379 18.9461 22.8683C18.6331 22.9987 18.2884 23.0332 17.9557 22.9676C17.6231 22.9019 17.3174 22.7389 17.0775 22.4993L12 17.417L6.92251 22.4993C6.68256 22.7389 6.3769 22.9019 6.04425 22.9676C5.7116 23.0332 5.36694 22.9987 5.05394 22.8683C4.78007 22.7542 4.54122 22.5712 4.3601 22.3381C4.33422 22.3048 4.30952 22.2704 4.28607 22.2351C4.09845 21.9527 3.99889 21.6209 4.00001 21.2819V12.9996V3.99991C4.00001 3.20428 4.31608 2.44125 4.87869 1.87865C5.4413 1.31606 6.20436 1 7.00001 1H17Z" fill="#9DA7AE"/>
</svg>
