<svg width="16" height="16" viewBox="0 0 16 16" fill="none" xmlns="http://www.w3.org/2000/svg">
<path fill-rule="evenodd" clip-rule="evenodd" d="M16 4C16 4.55228 15.5523 5 15 5H1C0.447715 5 0 4.55228 0 4C0 3.44772 0.447715 3 1 3H15C15.5523 3 16 3.44772 16 4Z" fill="#9DA7AE"/>
<path fill-rule="evenodd" clip-rule="evenodd" d="M16 12C16 12.5523 15.5523 13 15 13H1C0.447715 13 0 12.5523 0 12C0 11.4477 0.447715 11 1 11H15C15.5523 11 16 11.4477 16 12Z" fill="#9DA7AE"/>
<path d="M13 4C13 5.65685 11.6569 7 10 7C8.34315 7 7 5.65685 7 4C7 2.34315 8.34315 1 10 1C11.6569 1 13 2.34315 13 4Z" fill="white"/>
<path fill-rule="evenodd" clip-rule="evenodd" d="M10 5.5C10.8284 5.5 11.5 4.82843 11.5 4C11.5 3.17157 10.8284 2.5 10 2.5C9.17157 2.5 8.5 3.17157 8.5 4C8.5 4.82843 9.17157 5.5 10 5.5ZM10 7C11.6569 7 13 5.65685 13 4C13 2.34315 11.6569 1 10 1C8.34315 1 7 2.34315 7 4C7 5.65685 8.34315 7 10 7Z" fill="#9DA7AE"/>
<path d="M9 12C9 13.6569 7.65685 15 6 15C4.34315 15 3 13.6569 3 12C3 10.3431 4.34315 9 6 9C7.65685 9 9 10.3431 9 12Z" fill="white"/>
<path fill-rule="evenodd" clip-rule="evenodd" d="M6 13.5C6.82843 13.5 7.5 12.8284 7.5 12C7.5 11.1716 6.82843 10.5 6 10.5C5.17157 10.5 4.5 11.1716 4.5 12C4.5 12.8284 5.17157 13.5 6 13.5ZM6 15C7.65685 15 9 13.6569 9 12C9 10.3431 7.65685 9 6 9C4.34315 9 3 10.3431 3 12C3 13.6569 4.34315 15 6 15Z" fill="#9DA7AE"/>
</svg>
