<svg width="24" height="24" viewBox="0 0 24 24" fill="none" xmlns="http://www.w3.org/2000/svg">
<path d="M23.9996 6.99947C23.9994 6.80737 23.9439 6.61939 23.8397 6.458C23.7355 6.29661 23.5871 6.16865 23.4121 6.08941L12.4113 1.08905C12.2817 1.03036 12.141 1 11.9987 1C11.8565 1 11.7158 1.03036 11.5862 1.08905L0.585434 6.08941C0.410833 6.16896 0.262801 6.29705 0.158998 6.45842C0.0551938 6.61978 0 6.8076 0 6.99947C0 7.19134 0.0551938 7.37916 0.158998 7.54052C0.262801 7.70189 0.410833 7.82999 0.585434 7.90954L4.08568 9.49965L0.585434 11.0898C0.410833 11.1693 0.262801 11.2974 0.158998 11.4588C0.0551938 11.6201 0 11.808 0 11.9998C0 12.1917 0.0551938 12.3795 0.158998 12.5409C0.262801 12.7022 0.410833 12.8303 0.585434 12.9099L4.08568 14.5L0.585434 16.0901C0.410833 16.1697 0.262801 16.2978 0.158998 16.4591C0.0551938 16.6205 0 16.8083 0 17.0002C0 17.1921 0.0551938 17.3799 0.158998 17.5412C0.262801 17.7026 0.410833 17.8307 0.585434 17.9103L11.5862 22.9106C11.7158 22.9693 11.8565 22.9997 11.9987 22.9997C12.141 22.9997 12.2817 22.9693 12.4113 22.9106L23.4121 17.9103C23.5867 17.8307 23.7347 17.7026 23.8385 17.5412C23.9423 17.3799 23.9975 17.1921 23.9975 17.0002C23.9975 16.8083 23.9423 16.6205 23.8385 16.4591C23.7347 16.2978 23.5867 16.1697 23.4121 16.0901L19.9143 14.5L23.4146 12.9099C23.5892 12.8303 23.7372 12.7022 23.841 12.5409C23.9448 12.3795 24 12.1917 24 11.9998C24 11.808 23.9448 11.6201 23.841 11.4588C23.7372 11.2974 23.5892 11.1693 23.4146 11.0898L19.9143 9.49965L23.4146 7.90954C23.5891 7.82993 23.737 7.70181 23.8408 7.54045C23.9445 7.37909 23.9996 7.1913 23.9996 6.99947ZM20.5819 17.0002L11.9987 20.903L3.41564 17.0002L6.49836 15.5976L11.5862 17.9103C11.7158 17.9689 11.8565 17.9993 11.9987 17.9993C12.141 17.9993 12.2817 17.9689 12.4113 17.9103L17.4991 15.5976L20.5819 17.0002ZM20.5819 11.9998L11.9987 15.9026L3.41564 11.9998L6.49836 10.5972L11.5862 12.9099C11.7158 12.9686 11.8565 12.9989 11.9987 12.9989C12.141 12.9989 12.2817 12.9686 12.4113 12.9099L17.4991 10.5972L20.5819 11.9998ZM11.9987 10.9023L3.41564 6.99947L11.9987 3.09919L20.5819 6.99947L11.9987 10.9023Z" fill="#9DA7AE"/>
</svg>
