<svg width="24" height="24" viewBox="0 0 24 24" fill="none" xmlns="http://www.w3.org/2000/svg">
<path d="M1 13H2V21C2 21.7956 2.31607 22.5587 2.87868 23.1213C3.44129 23.6839 4.20435 24 5 24H19C19.7956 24 20.5587 23.6839 21.1213 23.1213C21.6839 22.5587 22 21.7956 22 21V13H23C23.2652 13 23.5196 12.8946 23.7071 12.7071C23.8946 12.5196 24 12.2652 24 12V7C24 6.73478 23.8946 6.48043 23.7071 6.29289C23.5196 6.10536 23.2652 6 23 6H20.4425C20.8036 5.39507 20.9961 4.70449 21 4C21 2.93913 20.5786 1.92172 19.8284 1.17157C19.0783 0.421427 18.0609 0 17 0C16.0093 0.000724736 15.0342 0.246765 14.1617 0.716154C13.2892 1.18554 12.5465 1.86367 12 2.69C11.4535 1.86367 10.7108 1.18554 9.83832 0.716154C8.96585 0.246765 7.99072 0.000724736 7 0C5.93913 0 4.92172 0.421427 4.17157 1.17157C3.42143 1.92172 3 2.93913 3 4C3.00392 4.70449 3.19642 5.39507 3.5575 6H1C0.734784 6 0.48043 6.10536 0.292893 6.29289C0.105357 6.48043 0 6.73478 0 7V12C0 12.2652 0.105357 12.5196 0.292893 12.7071C0.48043 12.8946 0.734784 13 1 13ZM4 21V13H9V22H5C4.73478 22 4.48043 21.8946 4.29289 21.7071C4.10536 21.5196 4 21.2652 4 21ZM12 8H13V22H11V8H12ZM20 21C20 21.2652 19.8946 21.5196 19.7071 21.7071C19.5196 21.8946 19.2652 22 19 22H15V13H20V21ZM22 11H15V8H22V11ZM17 2C17.5304 2 18.0391 2.21071 18.4142 2.58579C18.7893 2.96086 19 3.46957 19 4C19 4.53043 18.7893 5.03914 18.4142 5.41421C18.0391 5.78929 17.5304 6 17 6H13C13 4.93913 13.4214 3.92172 14.1716 3.17157C14.9217 2.42143 15.9391 2 17 2ZM5 4C5 3.46957 5.21071 2.96086 5.58579 2.58579C5.96086 2.21071 6.46957 2 7 2C8.06087 2 9.07828 2.42143 9.82843 3.17157C10.5786 3.92172 11 4.93913 11 6H7C6.46957 6 5.96086 5.78929 5.58579 5.41421C5.21071 5.03914 5 4.53043 5 4ZM2 8H9V11H2V8Z" fill="#9DA7AE"/>
</svg>
