<svg width="24" height="24" viewBox="0 0 24 24" fill="none" xmlns="http://www.w3.org/2000/svg">
<path d="M1 2C1 1.44772 1.44772 1 2 1H12C12.5523 1 13 1.44772 13 2V22C13 22.5523 12.5523 23 12 23H2C1.44772 23 1 22.5523 1 22V2Z" stroke="#323334" stroke-width="2"/>
<rect x="13" y="11" width="10" height="12" rx="1" stroke="#323334" stroke-width="2"/>
<rect x="6" y="5" width="2" height="2" stroke="#323334" stroke-width="2"/>
<rect x="6" y="11" width="2" height="2" stroke="#323334" stroke-width="2"/>
<rect x="6" y="17" width="2" height="5" stroke="#323334" stroke-width="2"/>
<path d="M17 18C17 17.4477 17.4477 17 18 17C18.5523 17 19 17.4477 19 18V22H17V18Z" stroke="#323334" stroke-width="2"/>
</svg>
