<svg width="24" height="24" viewBox="0 0 24 24" fill="none" xmlns="http://www.w3.org/2000/svg">
<path d="M9.99299 24H13.993C14.7886 24 15.5517 23.6842 16.1143 23.122C16.6769 22.5598 16.993 21.7973 16.993 21.0023V19.1562L17.328 18.0945C17.8062 16.6761 18.5001 15.3398 19.3855 14.1326C20.3262 12.7828 20.8784 11.2011 20.9821 9.55958C21.0858 7.91804 20.737 6.27951 19.9736 4.82229C19.2101 3.36507 18.0614 2.14497 16.6523 1.29472C15.2432 0.444483 13.6278 -0.00332676 11.9817 1.86072e-05C10.3356 0.00336398 8.722 0.457736 7.31639 1.3137C5.91077 2.16966 4.76701 3.39443 4.00953 4.85474C3.25206 6.31505 2.90989 7.95497 3.02026 9.59608C3.13062 11.2372 3.6893 12.8166 4.63549 14.1625C5.51234 15.3598 6.19877 16.6853 6.67049 18.092L6.99299 19.1562V21.0023C6.99299 21.7973 7.30906 22.5598 7.87167 23.122C8.43428 23.6842 9.19734 24 9.99299 24ZM14.993 21.0023C14.993 21.2673 14.8876 21.5215 14.7001 21.7089C14.5126 21.8963 14.2582 22.0015 13.993 22.0015H9.99299C9.72778 22.0015 9.47342 21.8963 9.28589 21.7089C9.09835 21.5215 8.99299 21.2673 8.99299 21.0023V19.0038H14.993V21.0023ZM6.26049 13.0084C5.43389 11.8395 4.991 10.4428 4.99299 9.01149C4.99108 7.91348 5.2479 6.83045 5.74265 5.85004C6.23739 4.86962 6.95618 4.01936 7.84085 3.36807C8.72551 2.71677 9.7512 2.28274 10.8349 2.10108C11.9186 1.91943 13.0299 1.99526 14.0788 2.32244C15.1277 2.64962 16.0849 3.21896 16.8727 3.98438C17.6605 4.7498 18.257 5.68981 18.6138 6.72833C18.9705 7.76685 19.0776 8.87471 18.9263 9.96227C18.7751 11.0498 18.3697 12.0865 17.743 12.9884C16.8523 14.2257 16.1317 15.5767 15.6005 17.0054H8.38799C7.86207 15.5834 7.14644 14.239 6.26049 13.0084Z" fill="#323334"/>
<path d="M9.9929 11.01H12.3754L11.0979 13.5605C11.039 13.6779 11.0039 13.8058 10.9946 13.9368C10.9852 14.0678 11.0018 14.1993 11.0434 14.3239C11.0849 14.4485 11.1507 14.5637 11.2368 14.6629C11.3229 14.7621 11.4278 14.8433 11.5454 14.902C11.6848 14.9702 11.8377 15.0061 11.9929 15.0069C12.1787 15.007 12.3608 14.9554 12.5189 14.8579C12.677 14.7604 12.8048 14.6208 12.8879 14.4548L14.8879 10.4579C14.9642 10.3055 15.0003 10.1361 14.9926 9.96587C14.985 9.79563 14.9339 9.63017 14.8442 9.48523C14.7545 9.34028 14.6292 9.22067 14.4802 9.13775C14.3312 9.05483 14.1634 9.01137 13.9929 9.01149H11.6104L12.8879 6.46095C12.9467 6.3435 12.9817 6.21565 12.991 6.08467C13.0003 5.9537 12.9837 5.82217 12.9422 5.6976C12.9006 5.57304 12.8349 5.45787 12.7488 5.35867C12.6627 5.25948 12.5579 5.1782 12.4404 5.11948C12.3229 5.06075 12.1949 5.02574 12.0638 5.01643C11.9328 5.00712 11.8011 5.0237 11.6765 5.06523C11.5518 5.10675 11.4366 5.1724 11.3373 5.25843C11.238 5.34446 11.1567 5.44919 11.0979 5.56663L9.0979 9.56357C9.02158 9.71597 8.98554 9.88534 8.9932 10.0556C9.00085 10.2258 9.05195 10.3913 9.14164 10.5362C9.23133 10.6812 9.35663 10.8008 9.50562 10.8837C9.65462 10.9666 9.82236 11.0101 9.9929 11.01Z" fill="#323334"/>
</svg>
