<svg width="24" height="24" viewBox="0 0 24 24" fill="none" xmlns="http://www.w3.org/2000/svg">
<path d="M11.2939 22.6898C11.3866 22.7826 11.4967 22.8562 11.6178 22.9064C11.739 22.9566 11.8689 22.9825 12 22.9825C12.1311 22.9825 12.261 22.9566 12.3822 22.9064C12.5033 22.8562 12.6134 22.7826 12.7061 22.6898L22.0296 13.3663C22.6518 12.7505 23.1462 12.0178 23.4843 11.2104C23.8225 10.4029 23.9977 9.53661 24 8.66121C24.0022 7.78582 23.8315 6.9186 23.4976 6.1094C23.1636 5.3002 22.673 4.56498 22.054 3.94597C21.435 3.32697 20.6998 2.8364 19.8906 2.50245C19.0814 2.1685 18.2142 1.99775 17.3388 2.00002C16.4634 2.00229 15.5971 2.17754 14.7896 2.51569C13.9822 2.85383 13.2495 3.34821 12.6337 3.97042L12 4.60413L11.3663 3.97042C10.7505 3.34821 10.0178 2.85383 9.21038 2.51569C8.40293 2.17754 7.53661 2.00229 6.66121 2.00002C5.78582 1.99775 4.9186 2.1685 4.1094 2.50245C3.3002 2.8364 2.56498 3.32697 1.94597 3.94597C1.32697 4.56498 0.8364 5.3002 0.502449 6.1094C0.168497 6.9186 -0.00224919 7.78582 2.23703e-05 8.66121C0.00229393 9.53661 0.177539 10.4029 0.515685 11.2104C0.853832 12.0178 1.34821 12.7505 1.97042 13.3663L11.2939 22.6898Z" fill="#F5DB52"/>
</svg>
