<svg width="24" height="24" viewBox="0 0 24 24" fill="none" xmlns="http://www.w3.org/2000/svg">
<path d="M21 0H3C1.34602 0 0 1.34602 0 3V21C0 22.654 1.34602 24 3 24H21C22.654 24 24 22.654 24 21V3C24 1.34602 22.654 0 21 0ZM22 21C22 21.552 21.551 22 21 22H3C2.44898 22 2.00002 21.552 2.00002 21V3C2.00002 2.44898 2.44903 2.00002 3 2.00002H21C21.551 2.00002 22 2.44903 22 3V21Z" fill="#9DA7AE"/>
<path d="M6.92001 5.62056C6.86999 5.49058 6.80001 5.39055 6.71001 5.29056C6.65999 5.25058 6.61002 5.21055 6.56001 5.17056C6.50001 5.13058 6.44001 5.10058 6.38001 5.08056C6.32001 5.05056 6.26001 5.03055 6.20001 5.02056C5.99999 4.98058 5.80002 5.00055 5.62002 5.08056C5.50002 5.13058 5.39 5.20056 5.29002 5.29056C5.20002 5.39055 5.13003 5.49058 5.08002 5.62056C5.03 5.74056 5 5.87055 5 6.00058C5 6.13061 5.03 6.2606 5.08002 6.3806C5.13003 6.51058 5.20002 6.61061 5.29002 6.7106C5.48 6.8906 5.74002 7.00061 6.00004 7.00061C6.06004 7.00061 6.13002 6.99063 6.20005 6.9806C6.26005 6.97061 6.32005 6.9506 6.38005 6.9206C6.44006 6.90058 6.50006 6.87058 6.56006 6.8306C6.61007 6.79061 6.66004 6.75058 6.71006 6.7106C6.89006 6.52061 7.00007 6.2606 7.00007 6.00058C6.99998 5.87059 6.96998 5.74056 6.92001 5.62056Z" fill="#9DA7AE"/>
<path d="M18 5.00003H9.99998C9.44798 5.00003 9 5.44802 9 6.00002C9 6.55202 9.44798 7.00001 9.99998 7.00001H18C18.552 7.00001 19 6.55202 19 6.00002C19 5.44802 18.552 5.00003 18 5.00003Z" fill="#9DA7AE"/>
<path d="M6.98001 11.7997C6.97003 11.7397 6.95001 11.6797 6.92001 11.6197C6.89999 11.5597 6.86999 11.4997 6.83001 11.4397C6.79003 11.3897 6.74999 11.3397 6.71001 11.2897C6.61002 11.1997 6.50001 11.1297 6.38001 11.0797C6.14001 10.9797 5.86002 10.9797 5.62002 11.0797C5.50002 11.1297 5.39 11.1997 5.29002 11.2897C5.25003 11.3397 5.21 11.3897 5.17002 11.4397C5.13003 11.4997 5.10003 11.5597 5.08002 11.6197C5.05002 11.6797 5.03 11.7397 5.02002 11.7997C5.01003 11.8697 5 11.9397 5 11.9997C5 12.2598 5.11002 12.5197 5.29002 12.7098C5.48 12.8898 5.74002 12.9998 6.00004 12.9998C6.26005 12.9998 6.52002 12.8898 6.71006 12.7098C6.89006 12.5198 7.00007 12.2598 7.00007 11.9997C6.99998 11.9397 6.99 11.8698 6.98001 11.7997Z" fill="#9DA7AE"/>
<path d="M18 11H9.99998C9.44798 11 9 11.448 9 12C9 12.552 9.44798 13 9.99998 13H18C18.552 13 19 12.552 19 12C19 11.448 18.552 11 18 11Z" fill="#9DA7AE"/>
<path d="M6.92001 17.6197C6.86999 17.4897 6.80001 17.3897 6.71001 17.2897C6.43002 17.0187 5.99001 16.9297 5.62002 17.0797C5.50002 17.1297 5.39 17.1997 5.29002 17.2897C5.20002 17.3897 5.13003 17.4997 5.08002 17.6197C5.03 17.7397 5 17.8697 5 17.9997C5 18.2697 5.09998 18.5197 5.29002 18.7097C5.48 18.8987 5.73004 18.9997 6.00004 18.9997C6.27004 18.9997 6.52002 18.8987 6.71006 18.7097C6.90004 18.5197 7.00007 18.2697 7.00007 17.9997C6.99998 17.8697 6.98001 17.7397 6.92001 17.6197Z" fill="#9DA7AE"/>
<path d="M18 17H9.99998C9.44798 17 9 17.447 9 18C9 18.553 9.44798 19 9.99998 19H18C18.552 19 19 18.553 19 18C19 17.447 18.552 17 18 17Z" fill="#9DA7AE"/>
</svg>
