<svg width="24" height="24" viewBox="0 0 24 24" fill="none" xmlns="http://www.w3.org/2000/svg">
<g clip-path="url(#clip0)">
<path d="M11.9602 21.9674H2.99002C2.43984 21.9674 1.99336 21.5208 1.99336 20.9707V3.03048C1.99336 2.48031 2.43989 2.03383 2.99002 2.03383H11.9602C12.5113 2.03383 12.9568 1.58833 12.9568 1.03717C12.9568 0.486014 12.5113 0.0404205 11.9602 0.0404205H2.99002C1.34152 0.0404205 0 1.38198 0 3.03048V20.9707C0 22.6192 1.34152 23.9607 2.99002 23.9607H11.9602C12.5113 23.9607 12.9568 23.5152 12.9568 22.964C12.9568 22.4129 12.5113 21.9674 11.9602 21.9674Z" fill="#9DA7AE"/>
<path d="M23.7037 11.2898L17.6439 5.30975C17.2532 4.92303 16.6213 4.92805 16.2346 5.31973C15.8479 5.71142 15.8518 6.34231 16.2446 6.72903L20.5751 11.0028H8.97078C8.41962 11.0028 7.97412 11.4483 7.97412 11.9994C7.97412 12.5506 8.41962 12.9961 8.97078 12.9961H20.5751L16.2446 17.2699C15.8519 17.6566 15.8489 18.2875 16.2346 18.6792C16.4299 18.8765 16.6871 18.9762 16.9442 18.9762C17.1974 18.9762 17.4505 18.8805 17.6439 18.6891L23.7037 12.709C23.8931 12.5217 24.0007 12.2665 24.0007 11.9994C24.0007 11.7324 23.894 11.4782 23.7037 11.2898Z" fill="#9DA7AE"/>
</g>
<defs>
<clipPath id="clip0">
<rect width="24" height="24" fill="white"/>
</clipPath>
</defs>
</svg>
