<svg width="24" height="24" viewBox="0 0 24 24" fill="none" xmlns="http://www.w3.org/2000/svg">
<path fill-rule="evenodd" clip-rule="evenodd" d="M3 2C2.20435 2 1.44129 2.31607 0.87868 2.87868C0.31607 3.44129 0 4.20435 0 5V10V18C0 18.7956 0.31607 19.5587 0.87868 20.1213C1.44129 20.6839 2.20435 21 3 21H9H11H13H16H21C21.7956 21 22.5587 20.6839 23.1213 20.1213C23.6839 19.5587 24 18.7956 24 18V10V5C24 4.20435 23.6839 3.44129 23.1213 2.87868C22.5587 2.31607 21.7956 2 21 2H3ZM16 19H21C21.2652 19 21.5196 18.8946 21.7071 18.7071C21.8946 18.5196 22 18.2652 22 18V10V5.28L12.625 12.78C12.4476 12.922 12.2272 12.9994 12 12.9994C11.7728 12.9994 11.5524 12.922 11.375 12.78L2 5.28V10V18C2 18.2652 2.10536 18.5196 2.29289 18.7071C2.48043 18.8946 2.73478 19 3 19H9H11H13H16ZM12 10.72L3.6 4H20.4L12 10.72Z" fill="#9DA7AE"/>
</svg>
