<svg width="24" height="24" viewBox="0 0 24 24" fill="none" xmlns="http://www.w3.org/2000/svg">
<path d="M22 3C22.5523 3 23 2.55228 23 2C23 1.44772 22.5523 1 22 1C21.4477 1 21 1.44772 21 2C21 2.55228 21.4477 3 22 3Z" fill="#9DA7AE"/>
<path d="M12.2835 2.31882L12.2835 2.31881C12.5773 2.1297 12.7116 1.76708 12.6169 1.42935C12.5242 1.09879 12.2323 0.865169 11.8929 0.853325C11.8761 0.852046 11.8465 0.85 11.8111 0.85C5.8 0.85 0.85 5.8589 0.85 12C0.85 18.1389 5.79752 23.15 11.8111 23.15C16.5917 23.15 20.6513 19.9582 22.1091 15.5553C22.2193 15.2224 22.1017 14.8538 21.8171 14.651L21.7301 14.7731L21.8171 14.651C21.5316 14.4475 21.1484 14.4611 20.8777 14.684C19.5437 15.7821 17.9366 16.3617 16.2281 16.3617C12.1147 16.3617 8.76403 12.9615 8.76403 8.77734C8.76403 6.1912 10.1131 3.71565 12.2835 2.31882ZM9.4255 2.75097C7.98811 4.4413 7.20204 6.5838 7.20204 8.77734C7.20204 13.8334 11.2486 17.9508 16.2281 17.9508C17.37 17.9508 18.499 17.7249 19.5506 17.2966C17.8483 19.9186 14.967 21.5609 11.8111 21.5609C6.63092 21.5609 2.41199 17.2742 2.41199 12C2.41199 7.56487 5.3955 3.82718 9.4255 2.75097Z" fill="#9DA7AE" stroke="#9DA7AE" stroke-width="0.3"/>
<path d="M13.7947 6.76821C15.087 6.76821 16.1788 7.88424 16.1788 9.2053C16.1788 9.64419 16.5346 10 16.9735 10C17.4124 10 17.7682 9.64419 17.7682 9.2053C17.7682 7.88424 18.86 6.76821 20.1523 6.76821C20.5912 6.76821 20.947 6.4124 20.947 5.97351C20.947 5.53462 20.5912 5.17881 20.1523 5.17881C18.8377 5.17881 17.7682 4.1093 17.7682 2.7947C17.7682 2.35581 17.4124 2 16.9735 2C16.5346 2 16.1788 2.35581 16.1788 2.7947C16.1788 4.1093 15.1093 5.17881 13.7947 5.17881C13.3558 5.17881 13 5.53462 13 5.97351C13 6.4124 13.3558 6.76821 13.7947 6.76821ZM16.9735 5.17605C17.203 5.48154 17.4753 5.75306 17.7816 5.98151C17.4752 6.2151 17.206 6.48842 16.9735 6.80164C16.7411 6.48848 16.4719 6.21521 16.1654 5.98151C16.4717 5.75306 16.7441 5.48154 16.9735 5.17605Z" fill="#9DA7AE"/>
<path d="M21 12C21.5523 12 22 11.5523 22 11C22 10.4477 21.5523 10 21 10C20.4477 10 20 10.4477 20 11C20 11.5523 20.4477 12 21 12Z" fill="#9DA7AE"/>
</svg>
