<svg width="25" height="25" viewBox="0 0 25 25" fill="none" xmlns="http://www.w3.org/2000/svg">
<path d="M3.68555 23.1858H20.6855C22.6355 23.1858 24.1855 21.6358 24.1855 19.6858V3.18579C24.1855 2.08579 23.2855 1.18579 22.1855 1.18579H7.18555C6.08555 1.18579 5.18555 2.08579 5.18555 3.18579V8.18579H2.18555C1.08555 8.18579 0.185547 9.08579 0.185547 10.1858V19.6858C0.185547 21.6358 1.73555 23.1858 3.68555 23.1858ZM2.18555 19.6858V10.1858H5.18555V19.6858C5.18555 20.5358 4.53555 21.1858 3.68555 21.1858C2.83555 21.1858 2.18555 20.5358 2.18555 19.6858ZM22.1855 19.6858C22.1855 20.5358 21.5355 21.1858 20.6855 21.1858H6.83555C7.08555 20.7358 7.18555 20.1858 7.18555 19.6858V3.18579H22.1855V19.6858Z" fill="#9DA7AE"/>
<path d="M10.1855 11.1858H19.1855C19.7355 11.1858 20.1855 10.7358 20.1855 10.1858V6.18579C20.1855 5.63579 19.7355 5.18579 19.1855 5.18579H10.1855C9.63555 5.18579 9.18555 5.63579 9.18555 6.18579V10.1858C9.18555 10.7358 9.63555 11.1858 10.1855 11.1858ZM11.1855 7.18579H18.1855V9.18579H11.1855V7.18579Z" fill="#9DA7AE"/>
<path d="M10.1855 15.1858H19.1855C19.7355 15.1858 20.1855 14.7358 20.1855 14.1858C20.1855 13.6358 19.7355 13.1858 19.1855 13.1858H10.1855C9.63555 13.1858 9.18555 13.6358 9.18555 14.1858C9.18555 14.7358 9.63555 15.1858 10.1855 15.1858Z" fill="#9DA7AE"/>
<path d="M10.1855 19.1858H16.1855C16.7355 19.1858 17.1855 18.7358 17.1855 18.1858C17.1855 17.6358 16.7355 17.1858 16.1855 17.1858H10.1855C9.63555 17.1858 9.18555 17.6358 9.18555 18.1858C9.18555 18.7358 9.63555 19.1858 10.1855 19.1858Z" fill="#9DA7AE"/>
</svg>
