<svg width="24" height="24" viewBox="0 0 24 24" fill="none" xmlns="http://www.w3.org/2000/svg">
<path d="M12.492 0.0419569C12.0617 -0.030778 11.6207 -0.00874794 11.1997 0.10651C10.7788 0.221768 10.3881 0.427477 10.0549 0.709287C9.7217 0.991096 9.45398 1.34222 9.27044 1.73815C9.0869 2.13409 8.99196 2.56531 8.99224 3.00171V3.68416C7.79659 4.25131 6.78621 5.14579 6.07829 6.26386C5.37036 7.38194 4.9939 8.6778 4.99257 10.0011V12.3185C4.9934 12.814 4.80882 13.292 4.47511 13.6583L2.67026 15.6582C2.33333 16.0313 2.11181 16.4941 2.03253 16.9905C1.95325 17.487 2.01961 17.9958 2.22357 18.4553C2.42752 18.9148 2.76033 19.3053 3.18169 19.5795C3.60304 19.8537 4.09487 19.9999 4.5976 20.0003H7.99233C7.99233 21.0611 8.41372 22.0784 9.1638 22.8285C9.91389 23.5786 10.9312 24 11.992 24C13.0528 24 14.0701 23.5786 14.8202 22.8285C15.5703 22.0784 15.9917 21.0611 15.9917 20.0003H19.3864C19.8896 20.0003 20.382 19.8543 20.8039 19.58C21.2257 19.3056 21.5589 18.9147 21.7629 18.4548C21.967 17.9948 22.0331 17.4855 21.9534 16.9886C21.8737 16.4918 21.6515 16.0287 21.3137 15.6557L19.5089 13.6558C19.1758 13.2901 18.9912 12.8132 18.9914 12.3185V10.2511C18.9975 8.89627 18.6267 7.56643 17.9203 6.41025C17.214 5.25407 16.2 4.31712 14.9918 3.70416V3.10921C15.0013 2.38587 14.756 1.68224 14.299 1.12149C13.842 0.560738 13.2023 0.178595 12.492 0.0419569ZM11.992 22.0002C11.4616 22.0002 10.9529 21.7895 10.5779 21.4144C10.2029 21.0394 9.99216 20.5307 9.99216 20.0003H13.9918C13.9918 20.5307 13.7811 21.0394 13.4061 21.4144C13.0311 21.7895 12.5224 22.0002 11.992 22.0002ZM16.9916 10.2511V12.3185C16.9915 13.3096 17.3594 14.2654 18.024 15.0007L19.8314 17.0006C19.9084 17.0868 19.959 17.1934 19.9769 17.3076C19.9948 17.4218 19.9793 17.5388 19.9323 17.6445C19.8853 17.7501 19.8088 17.8399 19.7119 17.9031C19.6151 17.9662 19.502 18.0001 19.3864 18.0005H4.5976C4.48198 18.0001 4.36893 17.9662 4.27208 17.9031C4.17523 17.8399 4.09869 17.7501 4.05168 17.6445C4.00467 17.5388 3.98919 17.4218 4.0071 17.3076C4.02501 17.1934 4.07555 17.0868 4.15264 17.0006L5.95999 15.0007C6.62458 14.2654 6.99249 13.3096 6.99241 12.3185V10.0011C6.9937 8.96847 7.31473 7.96154 7.9114 7.11869C8.50806 6.27583 9.35108 5.63842 10.3246 5.29403C10.5197 5.22526 10.6886 5.09769 10.8082 4.92891C10.9277 4.76013 10.992 4.55843 10.9921 4.3516V3.00171C10.9921 2.73652 11.0974 2.48219 11.285 2.29467C11.4725 2.10714 11.7268 2.0018 11.992 2.0018C12.0506 2.00183 12.1092 2.00685 12.167 2.0168C12.4091 2.07638 12.6232 2.21752 12.7735 2.41647C12.9237 2.61543 13.0009 2.86006 12.9919 3.10921V4.3591C12.992 4.56328 13.0545 4.76255 13.1711 4.93013C13.2878 5.09772 13.4529 5.22558 13.6444 5.29653C15.6142 6.02897 16.9916 8.0663 16.9916 10.2511Z" fill="#9DA7AE"/>
</svg>
