<svg width="25" height="24" viewBox="0 0 25 24" fill="none" xmlns="http://www.w3.org/2000/svg">
<path d="M22.3716 16H21.3716V14C21.3716 13.2044 21.0555 12.4413 20.4929 11.8787C19.9303 11.3161 19.1672 11 18.3716 11H13.3716V8H14.3716C14.902 8 15.4107 7.78929 15.7858 7.41421C16.1609 7.03914 16.3716 6.53043 16.3716 6V2C16.3716 1.46957 16.1609 0.960859 15.7858 0.585786C15.4107 0.210714 14.902 0 14.3716 0H10.3716C9.84115 0 9.33244 0.210714 8.95737 0.585786C8.5823 0.960859 8.37158 1.46957 8.37158 2V6C8.37158 6.53043 8.5823 7.03914 8.95737 7.41421C9.33244 7.78929 9.84115 8 10.3716 8H11.3716V11H6.37158C5.57593 11 4.81287 11.3161 4.25026 11.8787C3.68765 12.4413 3.37158 13.2044 3.37158 14V16H2.37158C1.84115 16 1.33244 16.2107 0.957368 16.5858C0.582296 16.9609 0.371582 17.4696 0.371582 18V22C0.371582 22.5304 0.582296 23.0391 0.957368 23.4142C1.33244 23.7893 1.84115 24 2.37158 24H6.37158C6.90202 24 7.41072 23.7893 7.7858 23.4142C8.16087 23.0391 8.37158 22.5304 8.37158 22V18C8.37158 17.4696 8.16087 16.9609 7.7858 16.5858C7.41072 16.2107 6.90202 16 6.37158 16H5.37158V14C5.37158 13.7348 5.47694 13.4804 5.66448 13.2929C5.85201 13.1054 6.10637 13 6.37158 13H18.3716C18.6368 13 18.8912 13.1054 19.0787 13.2929C19.2662 13.4804 19.3716 13.7348 19.3716 14V16H18.3716C17.8411 16 17.3324 16.2107 16.9574 16.5858C16.5823 16.9609 16.3716 17.4696 16.3716 18V22C16.3716 22.5304 16.5823 23.0391 16.9574 23.4142C17.3324 23.7893 17.8411 24 18.3716 24H22.3716C22.902 24 23.4107 23.7893 23.7858 23.4142C24.1609 23.0391 24.3716 22.5304 24.3716 22V18C24.3716 17.4696 24.1609 16.9609 23.7858 16.5858C23.4107 16.2107 22.902 16 22.3716 16ZM10.3716 2H14.3716V6H10.3716V2ZM6.37158 22H2.37158V18H6.37158V22ZM22.3716 22H18.3716V18H22.3716V22Z" fill="#9DA7AE"/>
</svg>
