<svg width="24" height="24" viewBox="0 0 24 24" fill="none" xmlns="http://www.w3.org/2000/svg">
<rect x="8" y="7" width="8" height="2" rx="1" fill="#9DA7AE"/>
<rect x="8" y="11" width="5" height="2" rx="1" fill="#9DA7AE"/>
<path fill-rule="evenodd" clip-rule="evenodd" d="M9.44 4H14.56C15.7326 4 16.4897 4.00161 17.0656 4.04943C17.6175 4.09527 17.8215 4.17301 17.9219 4.22517C18.2872 4.41492 18.5851 4.71276 18.7748 5.07805C18.827 5.17847 18.9047 5.3825 18.9506 5.93444C18.9984 6.51033 19 7.26745 19 8.44V12.9993C19 13.8422 18.9867 13.9321 18.9714 13.9946C18.9709 13.9968 18.9704 13.9989 18.9698 14.0011C18.8203 14 18.6544 14 18.4703 14H17.8571C16.4067 14 15.6816 14 15.1201 14.1681C13.5905 14.6262 12.4799 15.95 12.2946 17.5359C12.2309 18.081 12.3374 18.742 12.5583 19.997C12.423 19.9989 12.2425 20 11.9993 20H9.44C8.26745 20 7.51033 19.9984 6.93444 19.9506C6.3825 19.9047 6.17847 19.827 6.07805 19.7748C5.71276 19.5851 5.41492 19.2872 5.22517 18.9219C5.17301 18.8215 5.09527 18.6175 5.04943 18.0656C5.00161 17.4897 5 16.7326 5 15.56V8.44C5 7.26745 5.00161 6.51033 5.04943 5.93444C5.09527 5.3825 5.17301 5.17847 5.22517 5.07805C5.41492 4.71276 5.71276 4.41492 6.07805 4.22517C6.17847 4.17301 6.3825 4.09527 6.93444 4.04943C7.51033 4.00161 8.26745 4 9.44 4ZM3 8.44C3 6.16204 3 5.02306 3.45035 4.1561C3.82985 3.42553 4.42553 2.82985 5.1561 2.45035C6.02306 2 7.16204 2 9.44 2H14.56C16.838 2 17.9769 2 18.8439 2.45035C19.5745 2.82985 20.1702 3.42553 20.5497 4.1561C21 5.02306 21 6.16204 21 8.44V12.9993C21 13.7454 21 14.1184 20.9143 14.4691C20.8415 14.7673 20.7234 15.0525 20.5641 15.3148C20.3766 15.6234 20.1129 15.8871 19.5853 16.4147L15.4147 20.5853C14.8871 21.1129 14.6234 21.3766 14.3148 21.5641C14.0525 21.7234 13.7673 21.8415 13.4691 21.9143C13.1184 22 12.7454 22 11.9993 22H9.44C7.16204 22 6.02306 22 5.1561 21.5497C4.42553 21.1702 3.82985 20.5745 3.45035 19.8439C3 18.9769 3 17.838 3 15.56V8.44ZM15.6939 16.084C15.8681 16.0319 16.1432 16.0081 17.1697 16.0018L14.3853 18.7862L14.3824 18.7885C14.2776 18.1347 14.2635 17.9186 14.2811 17.7679C14.3737 16.975 14.9291 16.3131 15.6939 16.084Z" fill="#9DA7AE"/>
</svg>
