<svg width="16" height="16" viewBox="0 0 16 16" fill="none" xmlns="http://www.w3.org/2000/svg">
<g clip-path="url(#clip0)">
<path d="M8.00017 15.7338C3.58897 15.7338 0.000488281 12.145 0.000488281 7.73381C0.000488281 5.6686 0.801546 3.69343 2.21585 2.21117C2.21585 2.21117 2.00983 1.74781 1.75474 1.17621C1.50027 0.604607 1.86659 0.201254 2.57337 0.274914L6.71284 0.708558C7.41968 0.782376 7.65447 1.30846 7.2371 1.88362L4.79181 5.25238C4.37402 5.82743 3.85882 5.89638 3.64045 5.40603L3.24495 4.51855C2.60816 5.46086 2.2522 6.57607 2.2522 7.73381C2.2522 10.9038 4.83074 13.482 8.00012 13.482C11.17 13.482 13.7487 10.9035 13.7487 7.73381C13.7487 6.73532 13.4892 5.7522 12.9976 4.89114C12.6894 4.35098 12.8772 3.66345 13.4174 3.35531C13.9577 3.04686 14.6449 3.23498 14.9534 3.77546C15.6383 4.97558 16.0005 6.34431 16.0005 7.73376C16.0005 12.145 12.4115 15.7338 8.00017 15.7338Z" fill="#9DA7AE"/>
</g>
<defs>
<clipPath id="clip0">
<rect width="16" height="16" fill="white" transform="matrix(-1 0 0 1 16.0005 0)"/>
</clipPath>
</defs>
</svg>
