<svg width="24" height="24" viewBox="0 0 24 24" fill="none" xmlns="http://www.w3.org/2000/svg">
<path d="M11.9997 15.9997C12.7908 15.9997 13.5642 15.7651 14.222 15.3256C14.8798 14.886 15.3925 14.2613 15.6953 13.5303C15.9981 12.7994 16.0773 11.9951 15.9229 11.2192C15.7686 10.4432 15.3876 9.73045 14.8282 9.17102C14.2688 8.61159 13.556 8.23061 12.78 8.07627C12.0041 7.92192 11.1998 8.00114 10.4689 8.3039C9.73794 8.60666 9.1132 9.11937 8.67366 9.77719C8.23412 10.435 7.99951 11.2084 7.99951 11.9996C7.99951 13.0605 8.42095 14.0779 9.17113 14.8281C9.9213 15.5783 10.9388 15.9997 11.9997 15.9997ZM11.9997 9.99948C12.3952 9.99948 12.7819 10.1168 13.1108 10.3366C13.4397 10.5563 13.6961 10.8687 13.8475 11.2342C13.9989 11.5996 14.0385 12.0018 13.9613 12.3897C13.8841 12.7777 13.6936 13.1341 13.4139 13.4138C13.1342 13.6935 12.7778 13.884 12.3899 13.9612C12.0019 14.0384 11.5997 13.9988 11.2343 13.8474C10.8688 13.696 10.5564 13.4396 10.3367 13.1107C10.1169 12.7818 9.99958 12.3951 9.99958 11.9996C9.99958 11.4691 10.2103 10.9604 10.5854 10.5853C10.9605 10.2102 11.4692 9.99948 11.9997 9.99948Z" fill="#9DA7AE"/>
<path d="M4.00158 20.1049L5.53414 19.5548C5.8379 19.4439 6.16245 19.4016 6.48448 19.431C6.80652 19.4604 7.11806 19.5608 7.39671 19.7248L7.62172 19.8548C7.90149 20.0138 8.14255 20.2328 8.32757 20.4961C8.51259 20.7593 8.63697 21.0603 8.69175 21.3774L8.98176 22.9825C9.01783 23.1819 9.11364 23.3657 9.25651 23.5095C9.39939 23.6532 9.58257 23.7502 9.78179 23.7875C11.2483 24.0708 12.7555 24.0708 14.222 23.7875C14.4212 23.7502 14.6044 23.6532 14.7472 23.5095C14.8901 23.3657 14.9859 23.1819 15.022 22.9825L15.312 21.3774C15.3668 21.0603 15.4912 20.7593 15.6762 20.4961C15.8612 20.2328 16.1023 20.0138 16.382 19.8548L16.6095 19.7223C16.8881 19.559 17.1993 19.4593 17.5208 19.4304C17.8424 19.4014 18.1664 19.4439 18.4696 19.5548L20.0022 20.1049C20.1926 20.1729 20.3992 20.1816 20.5947 20.1299C20.7902 20.0781 20.9654 19.9682 21.0972 19.8148C22.071 18.6822 22.824 17.3771 23.3173 15.9672C23.3845 15.776 23.392 15.569 23.3389 15.3734C23.2858 15.1779 23.1745 15.0031 23.0198 14.8722L21.7897 13.8296C21.5311 13.5982 21.3264 13.3128 21.1904 12.9935C21.0543 12.6742 20.99 12.3289 21.0022 11.9821C20.9931 11.6408 21.0589 11.3016 21.195 10.9885C21.3311 10.6753 21.5341 10.3958 21.7897 10.1695L23.0198 9.12446C23.174 8.99375 23.2849 8.81939 23.3381 8.62435C23.3912 8.42931 23.3839 8.22276 23.3173 8.03192C22.8246 6.62096 22.0716 5.31498 21.0972 4.18178C20.9651 4.02881 20.7898 3.91946 20.5943 3.86814C20.3988 3.81682 20.1924 3.82592 20.0022 3.89427L18.4696 4.44179C18.166 4.55324 17.8413 4.5958 17.5192 4.5664C17.1971 4.537 16.8855 4.43637 16.607 4.27178L16.382 4.14428C16.102 3.98506 15.8607 3.76568 15.6757 3.50196C15.4907 3.23824 15.3664 2.93675 15.312 2.61922L15.022 1.01666C14.9859 0.817211 14.8901 0.633426 14.7472 0.48966C14.6044 0.345894 14.4212 0.248936 14.222 0.211633C12.7554 -0.0705442 11.2484 -0.0705442 9.78179 0.211633C9.58257 0.248936 9.39939 0.345894 9.25651 0.48966C9.11364 0.633426 9.01783 0.817211 8.98176 1.01666L8.69175 2.61922C8.63769 2.93591 8.51415 3.23669 8.33 3.49995C8.14585 3.7632 7.90567 3.9824 7.62672 4.14178L7.39421 4.27428C7.11587 4.43808 6.80465 4.53807 6.483 4.56703C6.16134 4.596 5.83726 4.55322 5.53414 4.44179L4.00158 3.89427C3.81138 3.82592 3.60494 3.81682 3.40946 3.86814C3.21398 3.91946 3.03864 4.02881 2.90654 4.18178C1.93219 5.31498 1.17913 6.62096 0.686463 8.03192C0.619824 8.22276 0.612583 8.42931 0.665694 8.62435C0.718805 8.81939 0.829775 8.99375 0.983974 9.12446L2.21402 10.1695C2.47309 10.4006 2.678 10.686 2.81412 11.0053C2.95025 11.3247 3.01424 11.6701 3.00155 12.0171C3.0101 12.3583 2.94407 12.6973 2.80804 13.0104C2.67202 13.3234 2.46929 13.603 2.21402 13.8296L0.983974 14.8722C0.829278 15.0031 0.717996 15.1779 0.664867 15.3734C0.611737 15.569 0.619269 15.776 0.686463 15.9672C1.17973 17.3771 1.93275 18.6822 2.90654 19.8148C3.03834 19.9682 3.21354 20.0781 3.40904 20.1299C3.60454 20.1816 3.81114 20.1729 4.00158 20.1049ZM3.50157 15.3547C3.98258 14.9366 4.36616 14.4182 4.62532 13.836C4.88448 13.2537 5.01292 12.6218 5.00162 11.9846C5.00972 11.3522 4.87968 10.7257 4.62059 10.1488C4.3615 9.57187 3.97961 9.05848 3.50157 8.64444L2.81154 8.05942C3.12607 7.33391 3.52554 6.64826 4.00158 6.01684L4.86412 6.32436C5.44307 6.53611 6.06179 6.6168 6.67569 6.5606C7.28958 6.5044 7.88337 6.31271 8.41425 5.99934L8.59675 5.89684C9.13473 5.5937 9.59876 5.17501 9.95542 4.67093C10.3121 4.16684 10.5525 3.58992 10.6593 2.98173L10.8243 2.0767C11.6063 1.9792 12.3974 1.9792 13.1794 2.0767L13.3444 2.98423C13.452 3.59281 13.6932 4.16995 14.0508 4.67404C14.4083 5.17813 14.8732 5.59662 15.412 5.89934L15.5845 5.99684C16.1163 6.31142 16.7113 6.50398 17.3265 6.56062C17.9417 6.61725 18.5619 6.53656 19.1421 6.32436L20.0022 6.01684C20.4747 6.64876 20.8708 7.33439 21.1822 8.05942L20.5022 8.64444C20.0214 9.06214 19.6379 9.5801 19.3787 10.1619C19.1196 10.7437 18.991 11.3752 19.0021 12.0121C18.9937 12.6448 19.1235 13.2718 19.3826 13.8492C19.6417 14.4266 20.0238 14.9404 20.5022 15.3547L21.1922 15.9372C20.8782 16.6638 20.4787 17.3503 20.0022 17.9823L19.1396 17.6723C18.5605 17.4609 17.9417 17.3806 17.3278 17.4372C16.7139 17.4939 16.1202 17.686 15.5895 17.9998L15.412 18.0998C14.8744 18.4028 14.4107 18.8211 14.054 19.3247C13.6974 19.8284 13.4568 20.4047 13.3494 21.0124L13.1844 21.9174C12.4026 22.0174 11.6112 22.0174 10.8293 21.9174L10.6643 21.0124C10.5568 20.4038 10.3155 19.8267 9.958 19.3226C9.60047 18.8185 9.13555 18.4 8.59675 18.0973L8.42425 17.9973C7.89267 17.6824 7.29791 17.4892 6.68275 17.4317C6.06759 17.3743 5.44733 17.4538 4.86662 17.6648L4.00158 17.9823C3.52851 17.3498 3.13237 16.6633 2.82154 15.9372L3.50157 15.3547Z" fill="#9DA7AE"/>
</svg>
