<svg width="25" height="24" viewBox="0 0 25 24" fill="none" xmlns="http://www.w3.org/2000/svg">
<path d="M0.443146 11.4743L0.443102 11.4744C0.214409 11.7877 0.214409 12.2128 0.443102 12.5262L0.443119 12.5262C0.552653 12.6762 1.88897 14.4788 4.01741 16.2449C6.14407 18.0095 9.07485 19.7488 12.3715 19.7488C15.6681 19.7488 18.5988 18.0095 20.7254 16.2449C22.8539 14.4789 24.1902 12.6763 24.2998 12.5265L24.2998 12.5265C24.5288 12.2131 24.5288 11.7877 24.2998 11.4746C24.19 11.3244 22.8537 9.52188 20.7254 7.75588C18.5988 5.99126 15.6681 4.25205 12.3715 4.25205C9.07485 4.25205 6.14407 5.99126 4.01741 7.75584C1.88897 9.52191 0.552652 11.3245 0.443146 11.4743ZM12.3715 17.9663C9.99928 17.9663 7.77811 16.8373 5.99038 15.5132C4.25348 14.2268 2.9359 12.7637 2.30043 11.9998C2.93503 11.2353 4.25012 9.77254 5.98593 8.48654C7.77251 7.16292 9.99409 6.03446 12.3715 6.03446C14.7435 6.03446 16.9646 7.16329 18.7523 8.48728C20.4892 9.77365 21.8068 11.2367 22.4425 12.001C21.8079 12.7655 20.4928 14.2282 18.757 15.5142C16.9704 16.8379 14.7488 17.9663 12.3715 17.9663Z" fill="#9DA7AE" stroke="#9DA7AE" stroke-width="0.2"/>
<path d="M12.3728 7.15244C9.69993 7.15244 7.52549 9.32689 7.52549 11.9997C7.52549 14.6725 9.69993 16.847 12.3728 16.847C15.0456 16.847 17.22 14.6725 17.22 11.9997C17.22 9.32689 15.0456 7.15244 12.3728 7.15244ZM12.3728 15.0645C10.6828 15.0645 9.30794 13.6896 9.30794 11.9997C9.30794 10.3098 10.6829 8.9349 12.3728 8.9349C14.0626 8.9349 15.4376 10.3098 15.4376 11.9997C15.4376 13.6896 14.0627 15.0645 12.3728 15.0645Z" fill="#9DA7AE" stroke="#9DA7AE" stroke-width="0.2"/>
</svg>
