<svg width="16" height="16" viewBox="0 0 16 16" fill="none" xmlns="http://www.w3.org/2000/svg">
<path d="M1.73106 7.31768C1.35422 6.91393 0.721432 6.89211 0.317682 7.26894C-0.0860689 7.64578 -0.107889 8.27857 0.268945 8.68232L1.73106 7.31768ZM5.66667 13L4.93561 13.6823C5.12474 13.885 5.38948 14 5.66667 14C5.94385 14 6.2086 13.885 6.39772 13.6823L5.66667 13ZM15.7311 3.68232C16.1079 3.27857 16.0861 2.64578 15.6823 2.26894C15.2786 1.89211 14.6458 1.91393 14.2689 2.31768L15.7311 3.68232ZM0.268945 8.68232L4.93561 13.6823L6.39772 12.3177L1.73106 7.31768L0.268945 8.68232ZM6.39772 13.6823L15.7311 3.68232L14.2689 2.31768L4.93561 12.3177L6.39772 13.6823Z" fill="#9DA7AE"/>
</svg>
