<?xml version="1.0" standalone="no"?>
<!DOCTYPE svg PUBLIC "-//W3C//DTD SVG 1.1//EN" "http://www.w3.org/Graphics/SVG/1.1/DTD/svg11.dtd">
<svg xmlns="http://www.w3.org/2000/svg">
<metadata>Copyright (C) 2021 by original authors @ fontello.com</metadata>
<defs>
<font id="icon-font" horiz-adv-x="1000" >
<font-face font-family="icon-font" font-weight="400" font-stretch="normal" units-per-em="1000" ascent="850" descent="-150" />
<missing-glyph horiz-adv-x="1000" />
<glyph glyph-name="community" unicode="&#xe800;" d="M208 100h42v-208c0-9 3-17 8-24 5-7 11-13 20-16 8-2 16-3 25-1 8 3 15 7 21 14l196 235h272c44 0 86 18 118 49 31 31 48 73 48 118v416c0 45-17 87-48 118-32 31-74 49-118 49h-584c-44 0-86-18-117-49-32-31-49-73-49-118v-416c0-45 17-87 49-118 31-31 73-49 117-49z m-83 583c0 22 9 44 24 59 16 16 37 25 59 25h584c22 0 43-9 59-25 15-15 24-37 24-59v-416c0-22-9-44-24-59-16-16-37-25-59-25h-292c-6 0-12-1-18-4-5-2-10-6-14-11l-135-162v136c0 11-4 21-12 29-8 8-18 12-29 12h-84c-22 0-43 9-59 25-15 15-24 37-24 59v416z m375-250c23 0 42 19 42 42 0 23-19 42-42 42-23 0-42-19-42-42 0-23 19-42 42-42z m-167 0c23 0 42 19 42 42 0 23-19 42-42 42-23 0-41-19-41-42 0-23 18-42 41-42z m334 0c23 0 41 19 41 42 0 23-18 42-41 42-23 0-42-19-42-42 0-23 19-42 42-42z" horiz-adv-x="1000" />

<glyph glyph-name="community-1" unicode="&#xe801;" d="M582 309l-82-2v-122c-58 6-66 38-96 85l-24 38h-30c-48 0-79 0-103 2-22 2-31 5-35 7-15 8-28 21-36 37-2 4-5 12-7 35-2 24-2 55-2 103v8c0 48 0 79 2 103 2 22 5 31 7 35 8 16 21 28 36 36l-38 75c-31-16-56-42-72-73-19-36-19-83-19-176v-8c0-94 0-140 19-176 16-31 41-57 72-73 36-18 83-18 176-18h-16c48-75 91-125 187-125h21c23 0 41 19 41 42v83c57 1 90 4 118 18l-38 74c-8-3-23-8-81-8z m-408 440l38-75c4 2 13 6 35 7 24 2 55 2 103 2h175c48 0 79 0 103-2 22-1 31-5 35-7 16-8 28-20 36-36 2-4 6-13 7-35 2-24 2-55 2-103v-8c0-48 0-79-2-103-1-23-5-31-7-35-8-16-20-29-36-37l38-74c31 16 57 42 73 73 18 36 18 82 18 176v8c0 93 2 136-18 176-16 31-42 57-73 73-36 18-83 18-176 18h-175c-93 0-140 0-176-18z m533-607l-82-1v-123c-58 6-107 39-137 85l-25 39h-30c-48 0-37 0-61 2-22 2-31 5-35 7-15 8-28 21-36 36-2 4-5 13-7 35-2 24-2 55-2 103v8c0 48 0 79 2 103 2 23 5 31 7 35 8 16 21 29 36 37l-38 74c-31-16-56-42-72-73-19-36-19-82-19-176v-8c0-93 0-140 19-176 16-31 41-56 72-72 36-19 41-19 134-19h-15c48-75 132-125 228-125h21c23 0 41 19 41 42v84c57 0 90 4 118 18l-38 74c-8-4-23-8-81-9z m-408 440l38-74c4 2 13 5 35 7 24 2 13 2 61 2h217c48 0 79 0 103-2 22-2 31-5 35-7 16-8 28-21 36-37 2-4 6-12 7-35 2-24 2-55 2-103v-8c0-48 0-79-2-103-1-22-5-31-7-35-8-15-20-28-36-36l38-74c31 16 57 41 73 72 18 36 18 83 18 176v8c0 94 0 140-18 176-16 31-42 57-73 73-36 18-83 18-176 18h-217c-93 0-98 0-134-18z m409-232c23 0 42 19 42 42 0 23-19 41-42 41l-291 0c-23 0-42-18-42-41 0-23 19-42 42-42l291 0z m-125-125c23 0 42 19 42 42 0 23-19 41-42 41l-166 0c-23 0-42-18-42-41 0-23 19-42 42-42l166 0z" horiz-adv-x="1000" />

<glyph glyph-name="context-menu" unicode="&#xe802;" d="M708 350c0-34 29-62 63-62 34 0 62 28 62 62 0 34-28 63-62 63-34 0-63-29-63-63z m-145 0c0 34-29 63-63 63-34 0-62-29-62-63 0-34 28-62 62-62 34 0 63 28 63 62z m-271 0c0 34-28 63-63 63-34 0-62-29-62-63 0-34 28-62 62-62 35 0 63 28 63 62z" horiz-adv-x="1000" />

<glyph glyph-name="desktop" unicode="&#xe803;" d="M875 850h-750c-33 0-65-13-88-37-24-23-37-55-37-88v-542c0-33 13-65 37-88 23-23 55-37 88-37h208v-125h-83c-11 0-22-4-29-12-8-8-13-18-13-29 0-11 5-22 13-30 7-8 18-12 29-12h500c11 0 22 4 30 12 7 8 12 19 12 30 0 11-5 21-12 29-8 8-19 12-30 12h-83v125h208c33 0 65 14 88 37 24 23 37 55 37 88v542c0 33-13 65-37 88-23 24-55 37-88 37z m-792-125c0 11 5 22 13 30 7 7 18 12 29 12h750c11 0 22-5 30-12 7-8 12-19 12-30v-375h-834v375z m500-792h-166v125h166v-125z m334 250c0-11-5-21-12-29-8-8-19-12-30-12h-750c-11 0-22 4-29 12-8 8-13 18-13 29v84h834v-84z" horiz-adv-x="1000" />

<glyph glyph-name="document" unicode="&#xe804;" d="M224-150h583c55 0 108 22 148 61 39 39 61 92 61 147v42c0 11-5 22-13 30-7 7-18 12-29 12h-167v458c0 33-13 65-36 88-24 24-56 37-89 37h-250c0 33-13 65-36 88-24 24-56 37-89 37-33 0-65-13-88-37-24-23-37-55-37-88h-41c-34 0-65-13-89-37-23-23-36-55-36-88v-542c0-55 21-108 61-147 39-39 92-61 147-61z m583 83h-418c28 36 43 80 43 125h500c0-33-13-65-36-88-24-24-56-37-89-37z m-708 667c0 11 4 22 12 30 8 7 18 12 30 12h41v-125c0-33 13-65 37-89 23-23 55-36 88-36 33 0 65 13 89 36 23 24 36 56 36 89 0 11-4 21-12 29-8 8-18 12-29 12-12 0-22-4-30-12-8-8-12-18-12-29 0-11-5-22-12-30-8-8-19-12-30-12-11 0-21 4-29 12-8 8-12 19-12 30v208c0 11 4 22 12 30 8 7 18 12 29 12 11 0 22-5 30-12 7-8 12-19 12-30v-42c0-11 4-21 12-29 8-8 18-12 30-12h291c11 0 22-5 30-12 7-8 12-19 12-30v-458h-333c-12 0-22-5-30-12-8-8-12-19-12-30v-42c0-33-13-65-37-88-23-24-55-37-88-37-33 0-65 13-89 37-23 23-36 55-36 88v542z" horiz-adv-x="1042" />

<glyph glyph-name="download" unicode="&#xe805;" d="M61 214c-12 0-24-5-32-14-9-8-13-20-13-32v-136c0-48 19-95 53-129 34-34 80-53 128-53h637c48 0 94 19 128 53 34 34 54 81 54 129v136c0 12-5 24-14 32-8 9-20 14-32 14-12 0-24-5-32-14-9-8-13-20-13-32v-136c0-24-10-47-27-65-17-17-40-26-64-26h-637c-24 0-47 9-64 26-17 18-27 41-27 65v136c0 12-4 24-13 32-8 9-20 14-32 14z m455 636c-13 0-24-5-33-13-8-9-13-20-13-32v-569l-105 101c-9 8-20 13-32 13-12-1-24-6-32-14-8-9-13-21-13-33 0-12 6-23 14-32l182-174c9-8 20-12 32-12 11 0 23 4 31 12l182 174c4 4 8 9 10 15 2 5 4 11 4 17 0 6-1 12-3 18-2 5-6 10-10 15-4 4-9 7-14 10-6 2-12 3-18 4-6 0-12-1-17-4-6-2-11-5-15-9l-105-101v569c0 12-5 23-13 32-9 8-20 13-32 13z" horiz-adv-x="1042" />

<glyph glyph-name="edit" unicode="&#xe806;" d="M42-66c0-11 4-22 12-30 8-8 18-12 29-12h71c49 0 98 10 143 28 46 19 87 47 122 82l484 484c35 35 55 83 55 134 0 50-20 98-55 133-36 36-84 56-134 56-50 0-98-20-134-56l-484-484c-34-35-62-76-81-121-19-46-28-95-28-144v-70z m802 760c20-20 31-47 31-75 0-28-11-54-31-74l-52-52-150 149 52 52c20 19 47 30 75 30 28 0 55-11 75-30z m-719-690c0 38 7 76 22 112 15 35 36 67 63 94l373 373 150-149-373-373c-27-27-59-49-95-64-35-14-73-22-111-22h-29v29z m42 430v125c0 33 13 65 36 88 24 24 56 37 89 37h125c11 0 21 4 29 12 8 8 12 18 12 29 0 11-4 22-12 30-8 8-18 12-29 12h-125c-56 0-109-22-148-61-39-39-61-92-61-147v-125c0-11 5-22 13-30 7-8 18-12 29-12 11 0 22 4 29 12 8 8 13 19 13 30z m541-500c56 0 109 22 148 61 39 39 61 92 61 147v125c0 11-5 22-13 30-7 7-18 12-29 12-11 0-22-5-29-12-8-8-13-19-13-30v-125c0-33-13-65-36-88-24-24-56-37-89-37h-125c-11 0-21-4-29-12-8-8-12-19-12-30 0-11 4-21 12-29 8-8 18-12 29-12h125z" horiz-adv-x="1000" />

<glyph glyph-name="edit2" unicode="&#xe807;" d="M672 731l-471-471-54-154c-24-66 40-130 106-107l155 55 360 361c2 1 3 2 5 4l29 29 0 0 76 77c33 32 33 85 0 117l-88 89c-33 32-86 32-118 0z m71-224l76 76-88 89-76-76 88-89z m-147 30l-322-322-49-137 137 48 322 322-88 89z" horiz-adv-x="1000" />

<glyph glyph-name="favorites" unicode="&#xe808;" d="M292 725c-11 0-22-4-30-12-8-8-12-19-12-30v-375c0 0 0 0 0 0v-316l221 221c3 4 8 7 13 9 5 2 11 3 16 3 6 0 11-1 16-3 5-2 10-5 14-9l220-221 0 316c0 0 0 0 0 0v375c0 11-4 22-12 30-8 8-19 12-30 12h-416z m416 83c34 0 65-13 89-36 23-24 36-55 36-89v-375-345c0-14-4-28-12-40-7-11-18-20-32-26-13-5-27-7-41-4-14 3-26 9-36 19l-212 212-212-212c-10-10-22-16-36-19-14-3-28-1-41 4-12 5-22 12-29 22-1 2-2 3-3 4-8 12-12 26-12 40v345 375c0 34 13 65 36 89 24 23 56 36 89 36h416z" horiz-adv-x="1000" />

<glyph glyph-name="filter" unicode="&#xe809;" d="M1000 600c0-34-28-62-62-62h-875c-35 0-63 28-63 62 0 35 28 63 63 63h875c34 0 62-28 62-63z m0-500c0-34-28-62-62-62h-875c-35 0-63 28-63 62 0 35 28 63 63 63h875c34 0 62-28 62-63z m-187 500c0-104-84-187-188-187-104 0-187 83-187 187 0 104 83 188 187 188 104 0 188-84 188-188z m-188-94c52 0 94 42 94 94 0 52-42 94-94 94-52 0-94-42-94-94 0-52 42-94 94-94z m0-93c104 0 188 83 188 187 0 104-84 188-188 188-104 0-187-84-187-188 0-104 83-187 187-187z m-62-313c0-104-84-188-188-188-104 0-187 84-187 188 0 104 83 188 187 188 104 0 188-84 188-188z m-188-94c52 0 94 42 94 94 0 52-42 94-94 94-52 0-94-42-94-94 0-52 42-94 94-94z m0-94c104 0 188 84 188 188 0 104-84 188-188 188-104 0-187-84-187-188 0-104 83-188 187-188z" horiz-adv-x="1000" />

<glyph glyph-name="floor-plan" unicode="&#xe80a;" d="M1000 558c0 8-2 16-7 23-4 7-10 12-17 15l-459 209c-5 2-11 3-17 3-6 0-12-1-17-3l-459-209c-7-3-13-8-17-15-5-7-7-15-7-23 0-8 2-15 7-22 4-7 10-12 17-16l146-66-146-66c-7-3-13-9-17-15-5-7-7-15-7-23 0-8 2-16 7-22 4-7 10-13 17-16l146-66-146-66c-7-4-13-9-17-16-5-6-7-14-7-22 0-8 2-16 7-23 4-7 10-12 17-15l459-209c5-2 11-3 17-3 6 0 12 1 17 3l459 209c7 3 13 8 17 15 5 7 7 15 7 23 0 8-2 16-7 22-4 7-10 12-17 16l-146 66 146 66c7 3 13 9 17 16 5 6 7 14 7 22 0 8-2 16-7 23-4 6-10 12-17 15l-146 66 146 66c7 4 13 9 17 16 5 7 7 14 7 22z m-142-416l-358-163-358 163 129 58 212-96c5-3 11-4 17-4 6 0 12 1 17 4l212 96 129-58z m0 208l-358-163-358 163 129 58 212-96c5-2 11-4 17-4 6 0 12 2 17 4l212 96 129-58z m-358 46l-358 162 358 163 358-163-358-162z" horiz-adv-x="1000" />

<glyph glyph-name="gift" unicode="&#xe80b;" d="M42 308h41v-333c0-33 14-65 37-88 23-24 55-37 88-37h584c33 0 65 13 88 37 24 23 37 55 37 88v333h41c11 0 22 5 30 13 8 7 12 18 12 29v208c0 11-4 22-12 30-8 8-19 12-30 12h-106c15 25 23 54 23 83 0 45-18 87-49 118-31 31-73 49-118 49-41 0-82-10-118-30-36-19-67-48-90-82-23 34-54 63-90 82-36 20-77 30-118 30-44 0-87-18-118-49-31-31-49-73-49-118 0-29 8-58 23-83h-106c-11 0-22-4-30-12-8-8-12-19-12-30v-208c0-11 4-22 12-29 8-8 19-13 30-13z m125-333v333h208v-375h-167c-11 0-21 5-29 12-8 8-12 19-12 30z m333 542h42v-584h-84v584h42z m333-542c0-11-4-22-12-30-8-7-18-12-29-12h-167v375h208v-333z m84 417h-292v125h292v-125z m-209 375c22 0 44-9 59-25 16-15 25-37 25-59 0-22-9-43-25-59-15-15-37-24-59-24h-166c0 44 17 87 49 118 31 31 73 49 117 49z m-500-84c0 22 9 44 25 59 15 16 37 25 59 25 44 0 86-18 118-49 31-31 48-74 48-118h-166c-22 0-44 9-59 24-16 16-25 37-25 59z m-125-166h292v-125h-292v125z" horiz-adv-x="1000" />

<glyph glyph-name="house" unicode="&#xe80c;" d="M42 767c0 23 18 41 41 41h417c23 0 42-18 42-41v-834c0-23-19-41-42-41h-417c-23 0-41 18-41 41v834z m666-667c0 23 19 42 42 42 23 0 42-19 42-42v-167h-84v167z" horiz-adv-x="1000" />

<glyph glyph-name="idea" unicode="&#xe80d;" d="M416-150h167c33 0 65 13 88 37 24 23 37 55 37 88v77l14 44c20 59 49 115 86 165 39 56 62 122 66 191 5 68-10 136-42 197-32 61-79 112-138 147-59 36-126 54-195 54-68 0-136-19-194-55-59-35-106-86-138-147-31-61-46-129-41-198 4-68 28-134 67-190 37-50 65-105 85-164l13-44v-77c0-33 14-65 37-88 23-24 55-37 88-37z m209 125c0-11-5-22-12-30-8-7-19-12-30-12h-167c-11 0-21 5-29 12-8 8-12 19-12 30v83h250v-83z m-364 333c-35 49-53 107-53 167 0 45 11 90 31 131 21 41 51 77 88 104 37 27 79 45 125 53 45 7 91 4 135-10 43-13 83-37 116-69 33-32 58-71 73-114 14-44 19-90 13-135-7-45-24-89-50-126-37-52-67-108-89-168h-300c-22 60-52 116-89 167z m155 83h100l-54-106c-2-5-3-10-4-16 0-5 0-11 2-16 2-5 5-10 8-14 4-4 8-7 13-10 6-3 12-4 19-4 7 0 15 2 22 6 6 4 12 10 15 17l83 166c4 7 5 14 5 21-1 7-3 14-6 20-4 6-9 11-16 14-6 4-13 6-20 6h-99l53 106c2 5 4 10 4 16 1 5 0 10-2 16-1 5-4 10-8 14-3 4-8 7-13 10-4 2-10 4-15 4-6 0-11 0-16-2-6-2-10-4-15-8-4-4-7-8-10-13l-83-166c-3-7-5-14-4-21 0-7 2-14 6-20 4-6 9-11 15-14 6-4 13-6 20-6z" horiz-adv-x="1000" />

<glyph glyph-name="info" unicode="&#xe80e;" d="" horiz-adv-x="1000" />

<glyph glyph-name="like" unicode="&#xe80f;" d="M471-95c3-4 8-7 13-9 5-3 11-4 16-4 6 0 11 1 16 4 5 2 10 5 13 9l389 388c26 26 46 56 61 90 14 34 21 70 21 106 0 37-7 73-21 106-14 34-34 65-60 91-26 25-56 46-90 60-34 14-70 21-107 21-36 0-72-8-106-22-33-14-64-34-90-60l-26-27-26 27c-26 26-57 46-90 60-34 14-70 22-106 22-37 0-73-7-107-21-33-14-64-35-90-60-26-26-46-57-60-91-14-33-21-69-21-106 0-36 7-72 22-106 14-34 34-64 60-90l389-388z" horiz-adv-x="1000" />

<glyph glyph-name="link" unicode="&#xe810;" d="M375 600c171 0 375 0 375 0 0 0 0-204 0-375m-500-125l469 469" horiz-adv-x="1000" />

<glyph glyph-name="list" unicode="&#xe811;" d="M875 850h-750c-69 0-125-56-125-125v-750c0-69 56-125 125-125h750c69 0 125 56 125 125v750c0 69-56 125-125 125z m42-875c0-23-19-42-42-42h-750c-23 0-42 19-42 42v750c0 23 19 42 42 42h750c23 0 42-19 42-42v-750z m-629 641c-2 5-5 9-8 14-2 1-5 3-7 5-2 1-5 3-7 3-3 2-5 2-8 3-8 2-16 1-24-3-5-2-9-5-14-8-3-5-6-9-8-14-2-5-4-11-4-16 0-5 2-11 4-16 2-5 5-9 8-14 8-7 19-12 30-12 3 0 5 1 8 1 3 1 5 1 8 3 2 1 5 2 7 3 2 2 5 4 7 5 7 8 12 19 12 30 0 5-2 11-4 16z m462 26h-333c-23 0-42-19-42-42 0-23 19-42 42-42h333c23 0 42 19 42 42 0 23-19 42-42 42z m-459-284c-1 3-1 5-3 8 0 2-2 5-3 7-2 2-4 5-5 7-5 3-9 6-14 8-10 5-22 5-32 0-5-2-9-5-14-8-1-2-3-5-5-7-1-2-2-5-3-7-2-3-2-5-3-8 0-3-1-5-1-8 0-11 5-22 12-30 8-7 19-12 30-12 11 0 22 5 30 12 7 8 12 19 12 30 0 3-1 5-1 8z m459 34h-333c-23 0-42-19-42-42 0-23 19-42 42-42h333c23 0 42 19 42 42 0 23-19 42-42 42z m-462-276c-2 5-5 9-8 14-12 11-30 15-46 8-5-2-9-5-14-8-3-5-6-9-8-14-2-5-4-11-4-16 0-11 5-22 12-30 8-7 19-12 30-12 11 0 22 5 30 12 8 8 12 19 12 30 0 5-1 11-4 16z m462 26h-333c-23 0-42-19-42-42 0-23 19-42 42-42h333c23 0 42 19 42 42 0 23-19 42-42 42z" horiz-adv-x="1000" />

<glyph glyph-name="logout" unicode="&#xe812;" d="M498-65h-373c-23 0-42 18-42 41v748c0 23 19 41 42 41h373c23 0 42 19 42 42 0 23-19 41-42 41h-373c-69 0-125-56-125-124v-748c0-69 56-124 125-124h373c23 0 42 18 42 41 0 23-19 42-42 42z m490 445l-253 249c-16 16-42 16-59-1-16-16-15-42 1-58l180-178h-483c-23 0-42-19-42-42 0-23 19-41 42-41h483l-180-179c-16-16-17-42-1-58 9-8 19-13 30-13 11 0 21 4 29 12l253 250c8 7 12 18 12 29 0 11-4 22-12 30z" horiz-adv-x="1000" />

<glyph glyph-name="mail" unicode="&#xe813;" d="" horiz-adv-x="1000" />

<glyph glyph-name="message" unicode="&#xe814;" d="M125 767c-33 0-65-13-88-37-24-23-37-55-37-88v-209-333c0-33 13-65 37-88 23-24 55-37 88-37h250 83 84 125 208c33 0 65 13 88 37 24 23 37 55 37 88v333 209c0 33-13 65-37 88-23 24-55 37-88 37h-750z m542-709h208c11 0 22 5 30 13 7 7 12 18 12 29v333 197l-391-312c-7-6-16-10-26-10-9 0-19 4-26 10l-391 312v-197-333c0-11 5-22 13-29 7-8 18-13 29-13h250 83 84 125z m-167 345l-350 280h700l-350-280z" horiz-adv-x="1000" />

<glyph glyph-name="moon" unicode="&#xe815;" d="M917 725c23 0 41 19 41 42 0 23-18 41-41 41-23 0-42-18-42-41 0-23 19-42 42-42z m-405 28l0 0c12 8 18 23 14 37-4 14-16 24-30 24-1 1-2 1-4 1-250 0-457-209-457-465 0-256 207-465 457-465 199 0 369 133 429 317 5 14 0 29-12 38l-4-5 4 5c-12 8-28 8-39-2-56-46-123-70-194-70-171 0-311 142-311 316 0 108 56 211 147 269z m-119-18c-60-70-93-159-93-251 0-210 169-382 376-382 48 0 95 10 139 27-71-109-191-177-323-177-216 0-391 178-391 398 0 185 124 341 292 385z m182-167c54 0 99-46 99-102 0-18 15-33 33-33 19 0 33 15 33 33 0 56 46 102 100 102 18 0 33 15 33 33 0 18-15 33-33 33-55 0-100 45-100 100 0 18-14 33-33 33-18 0-33-15-33-33 0-55-44-100-99-100-18 0-33-15-33-33 0-18 15-33 33-33z m132 66c10-12 21-24 34-33-13-10-24-21-34-34-9 13-21 24-33 34 12 9 24 21 33 33z m168-284c23 0 42 19 42 42 0 23-19 41-42 41-23 0-42-18-42-41 0-23 19-42 42-42z" horiz-adv-x="1000" />

<glyph glyph-name="news" unicode="&#xe816;" d="M147-77h680c78 0 140 62 140 140v660c0 44-36 80-80 80h-600c-44 0-80-36-80-80v-200h-120c-44 0-80-36-80-80v-380c0-78 62-140 140-140z m-60 140v380h120v-380c0-34-26-60-60-60-34 0-60 26-60 60z m800 0c0-34-26-60-60-60h-554c10 18 14 40 14 60v660h600v-660z m-480 340h360c22 0 40 18 40 40v160c0 22-18 40-40 40h-360c-22 0-40-18-40-40v-160c0-22 18-40 40-40z m40 160h280v-80h-280v80z m-40-320h360c22 0 40 18 40 40 0 22-18 40-40 40h-360c-22 0-40-18-40-40 0-22 18-40 40-40z m0-160h240c22 0 40 18 40 40 0 22-18 40-40 40h-240c-22 0-40-18-40-40 0-22 18-40 40-40z" horiz-adv-x="1000" />

<glyph glyph-name="notification" unicode="&#xe817;" d="M521 848c-18 3-37 2-54-2-18-5-34-14-48-26-14-11-25-26-33-42-7-17-11-35-11-53v-28c-50-24-92-61-122-108-29-47-45-101-45-156v-96c0-21-8-41-21-56l-76-83c-14-16-23-35-26-56-4-21-1-42 8-61 8-19 22-35 40-47 17-11 38-17 59-17h141c0-45 18-87 49-118 31-31 74-49 118-49 44 0 86 18 118 49 31 31 48 73 48 118h142c21 0 41 6 59 17 17 12 31 28 40 47 8 19 11 40 8 61-4 21-13 40-27 56l-75 83c-14 15-22 35-22 56v86c1 56-15 112-44 160-30 48-72 87-122 113v24c0 31-10 60-29 83-19 24-46 40-75 45z m-21-915c-22 0-44 9-59 25-16 15-25 37-25 59h167c0-22-9-44-24-59-16-16-37-25-59-25z m208 490v-86c0-42 15-81 43-112l75-83c4-4 6-8 6-13 1-5 1-10-1-14-2-5-6-8-10-11-4-3-8-4-13-4h-616c-5 0-10 1-14 4-4 3-7 6-9 11-2 4-3 9-2 14 1 5 3 9 6 13l75 83c28 31 43 70 43 112v96c0 43 14 85 39 120 25 36 60 62 100 76 8 3 15 9 20 16 5 7 8 15 8 24v56c0 11 4 22 12 29 8 8 19 13 30 13 2 0 5-1 7-1 10-2 19-8 25-17 7-8 10-18 9-29v-52c0-8 3-16 8-23 5-7 12-13 20-16 82-30 139-115 139-206z" horiz-adv-x="1000" />

<glyph glyph-name="organization" unicode="&#xe818;" d="M932 183h-41v84c0 33-14 65-37 88-24 24-55 37-88 37h-209v125h42c22 0 43 8 59 24 15 16 24 37 24 59v167c0 22-9 43-24 59-16 15-37 24-59 24h-167c-22 0-43-9-59-24-15-16-24-37-24-59v-167c0-22 9-43 24-59 16-16 37-24 59-24h42v-125h-208c-34 0-65-13-89-37-23-23-36-55-36-88v-84h-42c-22 0-43-8-59-24-16-16-24-37-24-59v-167c0-22 8-43 24-59 16-15 37-24 59-24h167c22 0 43 9 58 24 16 16 25 37 25 59v167c0 22-9 43-25 59-15 16-36 24-58 24h-42v84c0 11 4 21 12 29 8 8 18 12 30 12h500c11 0 21-4 29-12 8-8 12-18 12-29v-84h-41c-23 0-44-8-59-24-16-16-25-37-25-59v-167c0-22 9-43 25-59 15-15 36-24 59-24h166c22 0 43 9 59 24 16 16 25 37 25 59v167c0 22-9 43-25 59-16 16-37 24-59 24z m-500 584h167v-167h-167v167z m-166-834h-167v167h167v-167z m666 0h-166v167h166v-167z" horiz-adv-x="1042" />

<glyph glyph-name="page" unicode="&#xe819;" d="M393 683h214c49 0 80 0 104-2 23-2 32-5 36-7 15-8 27-20 35-36 3-4 6-12 8-35 2-24 2-56 2-105v-190c0-35-1-38-1-41 0 0-1 0-1 0-6 0-13 0-20 0h-26c-60 0-91 0-114-7-64-19-110-75-118-141-2-22 2-50 11-102-5 0-13 0-23 0h-107c-48 0-80 0-104 2-23 2-32 5-36 7-15 8-27 20-35 36-2 4-6 12-8 35-2 24-2 56-2 105v296c0 49 0 81 2 105 2 23 6 31 8 35 8 16 20 28 35 36 4 2 13 5 36 7 24 2 56 2 104 2z m-268-185c0 95 0 143 19 179 16 30 40 55 71 71 36 19 83 19 178 19h214c95 0 142 0 178-19 31-16 55-41 71-71 19-36 19-84 19-179v-190c0-31 0-46-4-61-3-12-7-24-14-35-8-13-19-24-41-46l-174-174c-22-22-33-33-46-41-10-6-22-11-35-14-14-4-30-4-61-4h-107c-95 0-142 0-178 19-31 16-55 41-71 71-19 36-19 84-19 179v296z m529-318c7 2 19 3 61 3l-116-116 0 0c-4 27-5 36-4 43 4 33 27 60 59 70z" horiz-adv-x="1000" />

<glyph glyph-name="replay" unicode="&#xe81a;" d="M500-133c-276 0-500 224-500 500 0 129 50 252 139 345 0 0-13 29-29 65-16 35 7 60 51 56l259-27c44-5 58-38 32-74l-152-210c-27-36-59-40-72-10l-25 56c-40-59-62-129-62-201 0-198 161-360 359-360 198 0 359 162 359 360 0 62-16 124-47 177-19 34-7 77 27 96 33 20 76 8 96-26 42-75 65-160 65-247 0-276-224-500-500-500z" horiz-adv-x="1000" />

<glyph glyph-name="search" unicode="&#xe81b;" d="M750 100l167-167" horiz-adv-x="1000" />

<glyph glyph-name="settings" unicode="&#xe81c;" d="M500 183c33 0 65 10 93 28 27 19 48 45 61 75 13 31 16 64 10 97-7 32-23 62-46 85-23 23-53 39-85 46-33 6-66 3-97-10-30-13-56-34-75-61-18-28-28-60-28-93 0-44 18-87 49-118 31-31 74-49 118-49z m0 250c17 0 33-4 46-14 14-9 25-22 31-37 6-15 8-32 5-48-3-16-11-31-23-43-12-12-27-19-43-23-16-3-33-1-48 5-15 6-28 17-37 31-9 13-14 30-14 46 0 22 8 43 24 59 16 16 37 24 59 24z m-333-421l64 23c12 5 26 7 39 5 14-1 27-5 38-12l10-5c11-7 21-16 29-27 8-11 13-24 15-37l12-67c2-8 6-16 12-22 6-6 13-10 22-11 61-12 124-12 185 0 8 1 16 5 22 11 5 6 9 14 11 22l12 67c2 13 8 26 15 37 8 11 18 20 30 27l9 5c12 7 25 11 38 12 13 2 27 0 40-5l63-23c8-2 17-3 25-1 8 2 16 7 21 13 41 48 72 102 93 161 2 8 3 16 1 24-3 9-7 16-14 21l-51 44c-11 9-19 21-25 35-6 13-8 27-8 42 0 14 3 28 8 41 6 13 14 25 25 34l51 44c7 5 11 13 13 21 3 8 2 16 0 24-21 59-52 114-93 161-5 6-13 11-21 13-8 2-17 2-25-1l-63-23c-13-5-27-6-40-5-13 1-26 5-38 12l-9 5c-12 7-22 16-30 27-8 11-13 24-15 37l-12 67c-2 8-6 16-11 22-6 6-14 10-22 11-61 12-124 12-185 0-9-1-16-5-22-11-6-6-10-14-12-22l-12-67c-2-13-7-26-15-37-8-11-18-20-29-27l-10-5c-11-7-24-11-38-12-13-1-27 0-39 5l-64 23c-8 3-17 3-25 1-8-2-15-7-21-13-40-47-72-102-92-161-3-8-3-16-1-24 2-8 7-16 13-21l51-44c11-9 20-21 25-35 6-13 9-27 8-42 0-14-2-28-8-41-6-13-14-25-25-34l-51-44c-6-5-11-12-13-21-2-8-2-16 1-24 20-59 52-113 92-161 6-6 13-11 21-13 8-2 17-1 25 1z m-21 198c20 18 36 39 47 64 11 24 16 50 15 77 1 26-5 52-15 76-11 24-27 46-47 63l-29 24c13 30 30 59 50 85l36-12c24-9 50-13 75-10 26 2 51 10 73 23l7 4c23 13 42 30 57 51 15 21 25 45 29 71l7 38c33 4 66 4 98 0l7-38c5-26 15-50 30-71 14-21 34-38 56-51l7-4c23-13 47-21 73-23 26-3 51 1 76 10l35 12c20-26 37-55 50-85l-29-24c-20-18-36-39-47-63-10-25-16-51-15-77-1-27 5-53 16-77 10-24 26-45 46-63l29-24c-13-30-30-59-50-85l-35 13c-25 9-50 12-76 10-26-3-50-11-72-24l-8-4c-22-13-42-30-56-51-15-21-25-45-30-71l-7-37c-32-4-65-4-98 0l-7 37c-4 26-14 50-29 71-15 21-34 38-57 51l-7 4c-22 13-47 21-73 24-25 2-51-1-75-10l-36-13c-20 26-36 55-49 85l28 24z" horiz-adv-x="1000" />

<glyph glyph-name="user" unicode="&#xe81d;" d="M813 38c0 138-140 250-313 250-173 0-312-112-312-250" horiz-adv-x="1000" />

<glyph glyph-name="view" unicode="&#xe81e;" d="M19 372l0 0c-10-13-10-31 0-44l0 0c4-6 60-81 148-155 89-73 211-146 349-146 137 0 259 73 348 146 88 74 144 149 149 155l0 0c9 13 9 31 0 44-5 6-61 81-149 155-89 73-211 146-348 146-138 0-260-73-349-146-88-74-144-149-148-155z m497-271c-99 0-192 47-266 103-73 53-128 114-154 146 26 32 81 93 153 146 75 56 167 103 267 103 98 0 191-47 265-103 73-53 128-114 154-146-26-32-81-93-153-146-75-56-167-103-266-103z m0 451c-112 0-202-91-202-202 0-111 90-202 202-202 111 0 202 91 202 202 0 111-91 202-202 202z m0-330c-71 0-128 58-128 128 0 70 57 128 128 128 70 0 127-58 127-128 0-70-57-128-127-128z" horiz-adv-x="1042" />

<glyph glyph-name="yes" unicode="&#xe81f;" d="M108 393c-23 25-63 26-88 3-25-24-27-63-3-89l91 86z m246-355l-45-43c11-13 28-20 45-20 18 0 34 7 46 20l-46 43z m629 582c24 25 22 65-3 88-25 24-65 22-88-3l91-85z m-966-313l292-312 91 85-292 313-91-86z m383-312l583 625-91 85-583-625 91-85z" horiz-adv-x="1000" />

<glyph glyph-name="add-image" unicode="&#xe820;" d="M542 725h-375c-44 0-87-18-118-49-31-31-49-73-49-118v-541c0-45 18-87 49-118 31-31 74-49 118-49h541c45 0 87 18 118 49 31 31 49 73 49 118v375c0 11-4 21-12 29-8 8-19 12-30 12-11 0-21-4-29-12-8-8-12-18-12-29v-191l-137 137c-4 4-9 7-14 9-5 2-10 3-16 3-5 0-11-1-16-3-5-2-10-5-13-9l-96-96-137 138c-4 3-9 6-14 9-5 2-10 3-16 3-5 0-11-1-16-3-5-3-9-6-13-9l-221-221v399c0 22 9 44 25 59 15 16 37 25 59 25h375c11 0 21 4 29 12 8 8 12 18 12 29 0 11-4 22-12 30-8 8-18 12-29 12z m-209-434l138-137c7-8 18-12 29-12 11 0 22 4 30 12l95 95 167-166v-66c0-22-9-44-25-59-15-16-37-25-59-25h-541c-22 0-44 9-59 25-16 15-25 37-25 59v24l250 250z m625 434h-83v83c0 11-4 22-12 30-8 8-19 12-30 12-11 0-21-4-29-12-8-8-12-19-12-30v-83h-84c-11 0-21-4-29-12-8-8-12-19-12-30 0-11 4-21 12-29 8-8 18-12 29-12h84v-84c0-11 4-21 12-29 8-8 18-12 29-12 11 0 22 4 30 12 8 8 12 18 12 29v84h83c11 0 22 4 30 12 8 8 12 18 12 29 0 11-4 22-12 30-8 8-19 12-30 12z m-437-292c34 0 62 28 62 63 0 34-28 62-62 62-35 0-63-28-63-62 0-35 28-63 63-63z" horiz-adv-x="1000" />

<glyph glyph-name="add" unicode="&#xe821;" d="" horiz-adv-x="1000" />

<glyph glyph-name="archive" unicode="&#xe822;" d="M83 517v-500c0-34 14-65 37-89 23-23 55-36 88-36h584c33 0 65 13 88 36 24 24 37 55 37 89v500c22 0 43 8 59 24 15 16 24 37 24 59v125c0 22-9 43-24 59-16 16-37 24-59 24h-834c-22 0-43-8-59-24-15-16-24-37-24-59v-125c0-22 9-43 24-59 16-16 37-24 59-24z m750-500c0-11-4-22-12-30-8-8-18-12-29-12h-584c-11 0-21 4-29 12-8 8-12 19-12 30v500h666v-500z m-750 708h834v-125h-834v125z m250-542h334c11 0 21 5 29 13 8 7 12 18 12 29v167c0 11-4 21-12 29-8 8-18 12-29 12h-334c-11 0-21-4-29-12-8-8-12-18-12-29v-167c0-11 4-22 12-29 8-8 18-13 29-13z m42 167h250v-83h-250v83z" horiz-adv-x="1000" />

<glyph glyph-name="arrow-up" unicode="&#xe823;" d="M206 582c-25-25-25-64 0-89 24-24 64-24 88 0l-88 89z m294 206l44 44c-24 24-64 24-88 0l44-44z m206-295c24-24 64-24 88 0 25 25 25 64 0 89l-88-89z m-412 0l250 250-88 89-250-250 88-89z m162 250l250-250 88 89-250 250-88-89z" horiz-adv-x="1000" />

<glyph glyph-name="arrow" unicode="&#xe824;" d="M393 56c25-25 64-25 89 0 24 24 24 64 0 88l-89-88z m-205 294l-45 44c-24-24-24-64 0-88l45 44z m294 206c24 24 24 64 0 88-25 25-64 25-89 0l89-88z m0-412l-250 250-89-88 250-250 89 88z m-250 162l250 250-89 88-250-250 89-88z" horiz-adv-x="1000" />

<glyph glyph-name="attention" unicode="&#xe825;" d="" horiz-adv-x="1000" />

<glyph glyph-name="bag" unicode="&#xe826;" d="M125-150h750c33 0 65 13 88 37 24 23 37 55 37 88v542c0 33-13 65-37 88-23 24-55 37-88 37h-167v83c0 33-13 65-36 88-24 24-55 37-89 37h-166c-33 0-65-13-89-37-23-23-36-55-36-88v-83h-167c-33 0-65-13-88-37-24-23-37-55-37-88v-542c0-33 13-65 37-88 23-24 55-37 88-37z m750 83h-750c-11 0-22 5-29 12-8 8-13 19-13 30v292h292v-125c0-11 4-22 12-30 8-8 19-12 30-12h166c11 0 22 4 30 12 8 8 12 19 12 30v125h292v-292c0-11-5-22-12-30-8-7-19-12-30-12z m-417 334h84v-84h-84v84z m-83 458c0 11 4 22 12 30 8 7 19 12 30 12h166c11 0 22-5 30-12 8-8 12-19 12-30v-83h-250v83z m-250-167h750c11 0 22-4 30-12 7-8 12-18 12-29v-167h-834v167c0 11 5 21 13 29 7 8 18 12 29 12z" horiz-adv-x="1000" />

<glyph glyph-name="book" unicode="&#xe827;" d="M750 850h-83c-56 0-109-22-148-61-39-39-61-92-61-147v-1c-35 27-79 42-125 42h-250c-11 0-21-4-29-12-8-8-12-18-12-29v-625c0-11 4-22 12-30 8-8 18-12 29-12h250c28 0 55-9 77-26 21-17 37-41 44-68 2-9 7-17 15-22 7-6 16-9 25-9h12c9 0 18 3 25 9 8 5 13 13 15 22 7 27 23 51 45 68 21 17 48 26 76 26h250c11 0 21 4 29 12 8 8 12 19 12 30v625c0 11-4 21-12 29-8 8-18 12-29 12h-125v125c0 11-5 22-12 30-8 8-19 12-30 12z m-208-208c0 33 13 65 36 88 24 24 56 37 89 37h41v-542h-41c-46 0-89-15-125-43v460z m-209-584h-208v542h208c34 0 65-13 89-37 23-23 36-55 36-88v-459c-36 27-79 42-125 42z m542 542v-542h-208c-45 0-89-15-125-42v1c0 33 13 65 36 88 24 24 56 37 89 37h83c11 0 22 4 30 12 7 8 12 18 12 29v417h83z" horiz-adv-x="1000" />

<glyph glyph-name="calendar" unicode="&#xe828;" d="M182-150h667c44 0 86 18 118 49 31 31 49 73 49 118v666c0 45-18 87-49 118-32 31-74 49-118 49h-667c-44 0-86-18-118-49-31-31-48-73-48-118v-666c0-45 17-87 48-118 32-31 74-49 118-49z m667 83h-667c-22 0-43 9-59 25-15 15-24 37-24 59v500h833v-500c0-22-9-44-24-59-16-16-37-25-59-25z m-667 834h667c22 0 43-9 59-25 15-15 24-37 24-59v-83h-833v83c0 22 9 44 24 59 16 16 37 25 59 25z m84-584c23 0 41 19 41 42 0 23-18 42-41 42-23 0-42-19-42-42 0-23 19-42 42-42z m0-166c23 0 41 18 41 41 0 23-18 42-41 42-23 0-42-19-42-42 0-23 19-41 42-41z m166 166c23 0 42 19 42 42 0 23-19 42-42 42-23 0-41-19-41-42 0-23 18-42 41-42z m0-166c23 0 42 18 42 41 0 23-19 42-42 42-23 0-41-19-41-42 0-23 18-41 41-41z m167 166c23 0 42 19 42 42 0 23-19 42-42 42-23 0-42-19-42-42 0-23 19-42 42-42z m0-166c23 0 42 18 42 41 0 23-19 42-42 42-23 0-42-19-42-42 0-23 19-41 42-41z m167 166c23 0 41 19 41 42 0 23-18 42-41 42-23 0-42-19-42-42 0-23 19-42 42-42z m-334 167c23 0 42 19 42 42 0 23-19 41-42 41-23 0-41-18-41-41 0-23 18-42 41-42z m167 0c23 0 42 19 42 42 0 23-19 41-42 41-23 0-42-18-42-41 0-23 19-42 42-42z m167 0c23 0 41 19 41 42 0 23-18 41-41 41-23 0-42-18-42-41 0-23 19-42 42-42z" horiz-adv-x="1042" />

<glyph glyph-name="call" unicode="&#xe829;" d="M798-108h-10c-130 14-255 58-364 129-102 65-188 150-252 252-71 109-116 234-130 364-1 17 1 35 7 51 5 15 14 29 25 40 11 12 24 22 40 29 15 7 32 11 48 11h120c30 1 58-10 81-29 22-19 36-45 40-74 4-35 13-70 25-104 8-21 10-45 5-67-4-22-15-43-30-59l-29-29c47-74 109-136 183-183l29 28c16 17 37 28 60 32 22 5 45 3 67-5 33-12 68-21 103-25 30-4 56-18 76-40 19-23 29-51 28-80v-120c0-17-4-33-10-49-7-15-17-29-29-40-12-11-27-19-43-25-12-5-26-7-40-7z m-516 796h-120c-5 0-11-1-16-3-5-2-10-6-13-10-4-4-7-9-9-14-1-5-1-11 0-16 13-117 53-230 117-329 58-91 135-169 226-227 99-64 212-104 329-117 5 0 10 1 15 2 5 2 10 5 14 9 5 3 8 8 10 13 2 5 3 11 3 16v120c1 10-3 20-9 27-7 8-15 13-25 14-41 6-81 16-120 30-7 3-15 4-22 2-8-2-15-5-21-11l-50-50c-7-7-15-11-23-12-9-1-18 1-25 5-107 61-195 148-255 255-5 7-7 16-6 25 1 9 5 17 11 23l51 51c5 5 8 12 10 19 2 7 1 14-1 21-15 39-25 79-30 120-2 9-7 18-14 24-7 8-16 13-27 13z m476-280c-10 0-19 3-26 9-8 6-13 15-14 24-7 31-22 60-44 82-22 23-51 39-81 45-11 2-20 8-26 17-6 9-9 20-7 31 2 10 8 20 17 26 9 6 20 8 31 6 47-9 90-32 124-65 33-34 56-77 66-124 2-11-1-21-7-30-5-9-15-15-25-17l-8-4z m160 0c-10 0-20 4-27 11-8 6-12 15-13 25-8 72-40 140-91 192-51 51-119 84-191 92-5 1-10 2-15 5-5 2-9 6-12 10-3 4-6 9-7 14-2 5-2 10-2 15 1 5 2 11 5 15 2 5 6 9 10 12 4 4 9 6 14 8 5 1 10 2 16 1 90-10 174-50 238-114 64-64 105-148 115-238 1-6 0-11-1-16-2-5-4-10-7-14-4-4-8-7-12-10-5-3-10-4-15-5l-5-3z" horiz-adv-x="1000" />

<glyph glyph-name="close-circle" unicode="&#xe82a;" d="" horiz-adv-x="1000" />

<glyph glyph-name="close" unicode="&#xe82b;" d="M63 788l437-438m438-438l-438 438m0 0l438 438m-438-438l-437-438" horiz-adv-x="1000" />

<glyph glyph-name="comment" unicode="&#xe82c;" d="M208 100h42v-167c0-8 3-17 8-24 5-7 11-12 20-15 8-3 16-3 25-1 8 2 15 7 21 14l196 193h272c44 0 86 18 118 49 31 31 48 73 48 118v333c0 44-17 87-48 118-32 31-74 49-118 49h-584c-44 0-86-18-117-49-32-31-49-74-49-118v-333c0-45 17-87 49-118 31-31 73-49 117-49z m-83 500c0 22 9 43 24 59 16 16 37 24 59 24h584c22 0 43-8 59-24 15-16 24-37 24-59v-333c0-22-9-44-24-59-16-16-37-25-59-25h-292c-6 0-12-1-18-4-5-2-10-6-14-11l-135-120v94c0 11-4 21-12 29-8 8-18 12-29 12h-84c-22 0-43 9-59 25-15 15-24 37-24 59v333z" horiz-adv-x="1000" />
</font>
</defs>
</svg>
